<svg width="148" height="85" viewBox="0 0 148 85" fill="none" xmlns="http://www.w3.org/2000/svg">
<path fill-rule="evenodd" clip-rule="evenodd" d="M103.697 0.361084C103.295 0.553401 100.952 1.63807 98.4893 2.77149C90.9376 6.24752 88.4215 7.47557 88.5704 7.61224C88.6492 7.68438 90.0291 8.41685 91.6371 9.24014C93.2451 10.0632 94.6309 10.7983 94.7164 10.8735C94.8021 10.9487 94.1324 12.3029 93.2281 13.8828C90.2237 19.1319 85.0193 28.2696 80.9946 35.3616C78.8081 39.2147 76.9664 42.3354 76.9023 42.2966C76.838 42.2577 76.3349 41.4298 75.7842 40.457C75.2334 39.484 73.8367 37.0158 72.6802 34.9721C70.3038 30.7726 64.3908 20.1056 63.412 18.2522L62.7664 17.03L58.9641 17.0287C56.8727 17.0278 55.1982 17.0884 55.243 17.1632C55.3996 17.4248 61.366 27.863 64.5937 33.522C66.3847 36.6623 69.1525 41.4891 70.7444 44.2483L73.6386 49.2647V53.8921V58.5195L76.7607 58.5729C78.4777 58.6025 79.9167 58.5925 79.9584 58.551C80 58.5095 80.034 56.4524 80.034 53.9798V49.484L80.9264 47.9831C81.4174 47.1575 84.965 41.0171 88.8102 34.3377C96.7143 20.6068 100.285 14.4646 100.485 14.2569C100.56 14.1788 102.049 14.8081 103.795 15.6553C105.54 16.5027 106.992 17.1723 107.022 17.1431C107.073 17.0923 106.725 14.3682 105.406 4.47498C105.054 1.83999 104.729 -0.00650814 104.618 1.724e-05C104.513 0.0061801 104.099 0.168585 103.697 0.361084ZM2.50061 5.24842C1.05762 5.678 0 7.13335 0 8.68929C0 10.1903 0.72195 11.3013 2.0564 11.8545C4.98787 13.0694 7.93305 10.0177 6.59824 7.14857C5.84632 5.53245 4.16506 4.75285 2.50061 5.24842ZM122.929 16.7804C122.28 17.8779 101.78 54.8678 100.369 57.4859L99.8121 58.5205L103.125 58.5735C104.947 58.6026 106.538 58.5838 106.661 58.5316C106.784 58.4794 108.142 56.1955 109.68 53.4563L112.475 48.476L122.978 48.4329L133.481 48.3895L136.209 53.4554L138.936 58.5213L142.393 58.5738C144.295 58.6028 145.878 58.582 145.912 58.5276C145.946 58.473 144.475 55.6998 142.643 52.3647C140.811 49.0296 135.788 39.857 131.481 31.9813C122.79 16.0874 123.058 16.5631 122.929 16.7804ZM0.182726 37.7816V58.5359H3.28907H6.39541V37.7816V17.0273H3.28907H0.182726V37.7816ZM27.2876 25.3199C27.3541 29.881 27.4085 39.2205 27.4087 46.0743L27.4089 58.5359H41.022H54.6351V55.5452V52.5544H44.2197H33.8043V34.7908V17.0273H30.4855H27.1666L27.2876 25.3199ZM126.071 34.7107C127.639 37.596 129.232 40.5074 129.612 41.1802L130.302 42.4038H122.965H115.629L115.974 41.8147C116.163 41.4906 117.792 38.5532 119.594 35.2873C121.397 32.0212 122.95 29.3749 123.046 29.4068C123.142 29.4387 124.504 31.8254 126.071 34.7107ZM23.7449 63.2627C23.3301 63.8685 23.0333 64.4064 23.0854 64.4581C23.1375 64.5098 23.4295 64.4976 23.7345 64.4313C24.0992 64.3519 24.6103 63.9424 25.2275 63.2359L26.166 62.1612H25.3324C24.5171 62.1612 24.4825 62.1851 23.7449 63.2627ZM135.45 65.3218C130.341 66.5499 126.977 71.7827 127.985 76.9339C128.93 81.764 132.87 85 137.805 85C140.789 85 143.16 84.0583 145.106 82.0993C148.973 78.2071 148.963 71.8528 145.084 67.9423C142.692 65.5306 138.887 64.4956 135.45 65.3218ZM0.182726 75.0133V84.6375H1.09636H2.00999V81.1935V77.7496H4.36057C7.191 77.7496 8.31769 77.5607 9.81184 76.8357C11.9775 75.7847 13.0468 73.9908 13.0481 71.4054C13.0494 68.8752 11.6773 66.8495 9.34589 65.9395C8.41563 65.5763 7.91405 65.5294 4.24838 65.4628L0.182726 65.3889V75.0133ZM21.5745 68.46C19.2489 73.6634 14.6181 84.3339 14.6181 84.4894C14.6181 84.5708 15.0159 84.6375 15.5021 84.6375H16.386L17.2866 82.5077L18.1871 80.3779H23.5415H28.8959L29.8185 82.5077L30.7411 84.6375H31.7052H32.6692L28.5316 75.0372L24.3939 65.4369L23.6627 65.4304L22.9314 65.4239L21.5745 68.46ZM32.8907 65.5799C32.8907 65.6657 34.6174 69.905 36.7279 75.0006C38.8384 80.0962 40.5652 84.3534 40.5652 84.4613C40.5652 84.5817 40.8939 84.636 41.4176 84.6021L42.27 84.5468L46.2608 75.3026C48.4557 70.2182 50.2992 65.9111 50.3575 65.7311C50.4518 65.4396 50.3591 65.4099 49.5087 65.4592L48.5538 65.5145L46.1126 71.3148C41.9888 81.1132 41.6188 81.949 41.4728 81.7953C41.3458 81.6619 40.2344 78.9939 35.9939 68.6412L34.6761 65.4239H33.7833C33.2923 65.4239 32.8907 65.494 32.8907 65.5799ZM55.5487 75.0307V84.6375H61.0305H66.5123V83.9124V83.1874H61.9441H57.376V74.3056V65.4239H56.4623H55.5487V75.0307ZM71.6286 75.0307V84.6375H77.4758H83.3231V83.9153V83.1934L78.4352 83.145L73.5472 83.0968V79.4715V75.8463L77.7042 75.7976L81.8613 75.7488V75.0307V74.3125L77.7042 74.2637L73.5472 74.215V70.6804V67.1458L78.3438 67.0974L83.1404 67.0492V66.2364V65.4239H77.3845H71.6286V75.0307ZM89.1703 75.0307V84.6375H90.0819H90.9937L91.0412 76.798L91.0889 68.9584L94.8421 73.9431C96.9066 76.6847 99.5378 80.2122 100.689 81.7821L102.783 84.6364L103.56 84.6369L104.337 84.6375L104.334 75.2572C104.332 70.0982 104.262 65.7697 104.179 65.6386C104.08 65.4846 103.742 65.4206 103.222 65.4574L102.418 65.5145L102.475 73.2634C102.506 77.5254 102.491 81.0123 102.441 81.0123C102.322 81.0123 93.6016 69.4148 91.3674 66.2848C90.7958 65.484 90.6975 65.4239 89.9615 65.4239H89.1703V75.0307ZM110.732 75.0307V84.6375H111.646H112.559V80.8687V77.0999L113.343 76.3372C113.774 75.9178 114.206 75.5744 114.304 75.5744C114.402 75.5744 116.441 77.6136 118.834 80.106L123.186 84.6375H124.466H125.746L120.752 79.5529C118.004 76.7564 115.743 74.4115 115.727 74.3417C115.71 74.2721 116.292 73.6848 117.02 73.0368C117.747 72.3888 119.882 70.4312 121.762 68.6865L125.181 65.5145L123.972 65.4605L122.762 65.4066L120.102 67.9075C116.434 71.3563 112.914 74.5654 112.721 74.6379C112.63 74.672 112.559 72.6705 112.559 70.0611V65.4239H111.646H110.732V75.0307ZM139.743 66.7848C142.877 67.5176 145.165 69.7797 145.899 72.8713C147.37 79.0595 142.719 84.2769 136.532 83.3793C133.155 82.8892 130.571 80.4021 129.829 76.9296C129.488 75.3298 129.489 74.5079 129.834 73.0537C130.924 68.4679 135.247 65.7331 139.743 66.7848ZM8.20677 67.3392C11.4063 68.2818 12.372 72.3179 9.99329 74.8045C9.03343 75.8077 7.7876 76.1498 4.7052 76.256L2.00999 76.3488V71.702V67.0552H4.62626C6.4696 67.0552 7.52758 67.1391 8.20677 67.3392ZM25.9487 73.3993C27.0747 76.0412 28.0329 78.2937 28.078 78.4052C28.1787 78.6533 19.7289 78.9559 19.314 78.7188C19.0918 78.5921 19.339 77.8705 20.7325 74.5775C23.1715 68.8136 23.564 67.9997 23.7474 68.324C23.8322 68.4736 24.8228 70.7574 25.9487 73.3993Z" fill="white"/>
</svg>
