<svg width="267" height="47" viewBox="0 0 267 47" fill="none" xmlns="http://www.w3.org/2000/svg">
<path d="M9.03967 37.2083C8.13753 37.2083 7.38488 36.9067 6.78171 36.3035C6.17854 35.7004 5.87631 34.9471 5.875 34.0436V12.9563C5.875 12.0542 6.17724 11.3015 6.78171 10.6983C7.38618 10.0952 8.13818 9.79293 9.03771 9.79163H37.9623C38.8631 9.79163 39.6151 10.0939 40.2183 10.6983C40.8215 11.3028 41.1237 12.0555 41.125 12.9563V34.0456C41.125 34.9464 40.8228 35.6991 40.2183 36.3035C39.6138 36.908 38.8618 37.2096 37.9623 37.2083H9.03967ZM23.5 23.7271L7.83333 13.4831V34.0456C7.83333 34.3968 7.94626 34.6853 8.17212 34.9112C8.39799 35.137 8.68717 35.25 9.03967 35.25H37.9623C38.3135 35.25 38.602 35.137 38.8279 34.9112C39.0537 34.6853 39.1667 34.3961 39.1667 34.0436V13.4811L23.5 23.7271ZM23.5 21.5416L38.5635 11.75H8.4365L23.5 21.5416ZM7.83333 13.4831V11.75V34.0456C7.83333 34.3968 7.94626 34.6853 8.17212 34.9112C8.39799 35.137 8.68717 35.25 9.03967 35.25H7.83333V13.4831Z" fill="white"/>
<path d="M57.432 28.16C57.112 28.16 56.856 28.0747 56.664 27.904C56.472 27.7333 56.376 27.4987 56.376 27.2V17.6C56.376 17.3013 56.472 17.0667 56.664 16.896C56.856 16.7253 57.112 16.64 57.432 16.64C57.7413 16.64 57.9973 16.7253 58.2 16.896C58.4027 17.0667 58.504 17.3013 58.504 17.6V27.2C58.504 27.4987 58.4027 27.7333 58.2 27.904C57.9973 28.0747 57.7413 28.16 57.432 28.16ZM61.971 28.16C61.6403 28.16 61.3843 28.0747 61.203 27.904C61.0217 27.7333 60.931 27.4987 60.931 27.2V16.816C60.931 16.5173 61.0217 16.2827 61.203 16.112C61.3843 15.9413 61.6403 15.856 61.971 15.856C62.291 15.856 62.547 15.9413 62.739 16.112C62.931 16.2827 63.027 16.5173 63.027 16.816V27.2C63.027 27.4987 62.931 27.7333 62.739 27.904C62.547 28.0747 62.291 28.16 61.971 28.16ZM68.7821 32C68.0035 32 67.2941 31.8773 66.6541 31.632C66.0248 31.3973 65.5395 31.0667 65.1981 30.64C65.0595 30.4587 64.9901 30.272 64.9901 30.08C64.9901 29.824 65.1128 29.5893 65.3581 29.376C65.5181 29.248 65.6941 29.184 65.8861 29.184C66.1741 29.184 66.4515 29.328 66.7181 29.616C67.1768 30.1067 67.8488 30.352 68.7341 30.352C69.4915 30.352 70.0621 30.1493 70.4461 29.744C70.8408 29.3493 71.0381 28.768 71.0381 28V27.328C70.7821 27.5733 70.4515 27.776 70.0461 27.936C69.6408 28.0853 69.2568 28.16 68.8941 28.16C67.5608 28.16 66.5208 27.808 65.7741 27.104C65.0275 26.3893 64.6541 25.3973 64.6541 24.128V20.896C64.6541 20.64 64.7555 20.4267 64.9581 20.256C65.1608 20.0853 65.4115 20 65.7101 20C65.9981 20 66.2435 20.0907 66.4461 20.272C66.6488 20.4427 66.7501 20.6507 66.7501 20.896V24.128C66.7501 24.896 66.9368 25.4933 67.3101 25.92C67.6941 26.3467 68.2221 26.56 68.8941 26.56C69.5448 26.56 70.0515 26.3467 70.4141 25.92C70.7768 25.4933 70.9581 24.896 70.9581 24.128V21.072C70.9581 20.7307 71.0488 20.4693 71.2301 20.288C71.4221 20.096 71.6835 20 72.0141 20C72.3448 20 72.6008 20.096 72.7821 20.288C72.9635 20.4693 73.0541 20.7307 73.0541 21.072V27.728C73.0541 29.072 72.6755 30.1173 71.9181 30.864C71.1715 31.6213 70.1261 32 68.7821 32ZM77.7329 28.16C77.0715 28.16 76.4849 28.048 75.9729 27.824C75.4715 27.6 75.0769 27.2907 74.7889 26.896C74.5115 26.4907 74.3729 26.0267 74.3729 25.504C74.3729 24.7147 74.6982 24.0853 75.3489 23.616C76.0102 23.1467 76.9009 22.912 78.0209 22.912C78.9915 22.912 79.7702 23.12 80.3569 23.536V23.152C80.3569 22.6507 80.2022 22.2667 79.8929 22C79.5835 21.7333 79.1355 21.6 78.5489 21.6C77.6742 21.6 76.9222 21.7867 76.2929 22.16C76.0262 22.3093 75.7969 22.384 75.6049 22.384C75.3702 22.384 75.1622 22.2773 74.9809 22.064C74.8635 21.9147 74.8049 21.76 74.8049 21.6C74.8049 21.3333 74.9435 21.0987 75.2209 20.896C75.6049 20.6187 76.0902 20.4 76.6769 20.24C77.2635 20.08 77.8822 20 78.5329 20C79.7702 20 80.7409 20.2827 81.4449 20.848C82.1595 21.4027 82.5169 22.1707 82.5169 23.152V27.264C82.5169 27.5413 82.4209 27.76 82.2289 27.92C82.0475 28.08 81.7969 28.16 81.4769 28.16C81.1462 28.16 80.8902 28.0853 80.7089 27.936C80.5275 27.7867 80.4369 27.5733 80.4369 27.296V27.12C79.8289 27.8133 78.9275 28.16 77.7329 28.16ZM78.2289 26.688C78.9009 26.688 79.4235 26.5867 79.7969 26.384C80.1809 26.1707 80.3729 25.8773 80.3729 25.504C80.3729 25.152 80.1809 24.8693 79.7969 24.656C79.4129 24.4427 78.9009 24.336 78.2609 24.336C77.6849 24.336 77.2369 24.4373 76.9169 24.64C76.6075 24.8427 76.4529 25.1307 76.4529 25.504C76.4529 25.8773 76.6075 26.1707 76.9169 26.384C77.2262 26.5867 77.6635 26.688 78.2289 26.688ZM85.1079 28C84.7345 28 84.4252 27.8827 84.1799 27.648C83.9345 27.4133 83.8119 27.1307 83.8119 26.8C83.8119 26.448 83.9345 26.1547 84.1799 25.92C84.4252 25.6747 84.7345 25.552 85.1079 25.552C85.4812 25.552 85.7852 25.6747 86.0199 25.92C86.2652 26.1653 86.3879 26.4587 86.3879 26.8C86.3879 27.1307 86.2652 27.4133 86.0199 27.648C85.7852 27.8827 85.4812 28 85.1079 28ZM88.9833 28.16C88.6633 28.16 88.4073 28.0747 88.2153 27.904C88.0233 27.7333 87.9273 27.4987 87.9273 27.2V19.168C87.9273 18.4213 88.1406 17.84 88.5673 17.424C89.0046 17.008 89.6073 16.8 90.3753 16.8H93.0793C94.7006 16.8 95.9326 17.136 96.7753 17.808C97.6179 18.48 98.0393 19.4667 98.0393 20.768C98.0393 22.0693 97.6286 23.056 96.8073 23.728C95.9859 24.4 94.7753 24.736 93.1753 24.736H90.0553V27.2C90.0553 27.488 89.9539 27.7227 89.7513 27.904C89.5593 28.0747 89.3033 28.16 88.9833 28.16ZM93.1593 23.088C94.9833 23.088 95.8953 22.3147 95.8953 20.768C95.8953 19.2213 94.9833 18.448 93.1593 18.448H90.7433C90.5299 18.448 90.3593 18.5173 90.2313 18.656C90.1139 18.7947 90.0553 18.9867 90.0553 19.232V23.088H93.1593ZM101.999 28.16C101.337 28.16 100.751 28.048 100.239 27.824C99.7372 27.6 99.3425 27.2907 99.0545 26.896C98.7772 26.4907 98.6385 26.0267 98.6385 25.504C98.6385 24.7147 98.9638 24.0853 99.6145 23.616C100.276 23.1467 101.167 22.912 102.286 22.912C103.257 22.912 104.036 23.12 104.623 23.536V23.152C104.623 22.6507 104.468 22.2667 104.159 22C103.849 21.7333 103.401 21.6 102.815 21.6C101.94 21.6 101.188 21.7867 100.559 22.16C100.292 22.3093 100.063 22.384 99.8705 22.384C99.6358 22.384 99.4278 22.2773 99.2465 22.064C99.1292 21.9147 99.0705 21.76 99.0705 21.6C99.0705 21.3333 99.2092 21.0987 99.4865 20.896C99.8705 20.6187 100.356 20.4 100.943 20.24C101.529 20.08 102.148 20 102.799 20C104.036 20 105.007 20.2827 105.711 20.848C106.425 21.4027 106.783 22.1707 106.783 23.152V27.264C106.783 27.5413 106.687 27.76 106.495 27.92C106.313 28.08 106.063 28.16 105.743 28.16C105.412 28.16 105.156 28.0853 104.975 27.936C104.793 27.7867 104.703 27.5733 104.703 27.296V27.12C104.095 27.8133 103.193 28.16 101.999 28.16ZM102.495 26.688C103.167 26.688 103.689 26.5867 104.063 26.384C104.447 26.1707 104.639 25.8773 104.639 25.504C104.639 25.152 104.447 24.8693 104.063 24.656C103.679 24.4427 103.167 24.336 102.527 24.336C101.951 24.336 101.503 24.4373 101.183 24.64C100.873 24.8427 100.719 25.1307 100.719 25.504C100.719 25.8773 100.873 26.1707 101.183 26.384C101.492 26.5867 101.929 26.688 102.495 26.688ZM111.991 28.16C110.722 28.16 109.842 27.4507 109.351 26.032L107.655 21.168C107.623 21.072 107.607 20.9813 107.607 20.896C107.607 20.6507 107.714 20.4427 107.927 20.272C108.151 20.1013 108.439 20.016 108.791 20.016C109.005 20.016 109.186 20.064 109.335 20.16C109.485 20.256 109.591 20.3893 109.655 20.56L111.447 25.76C111.533 26.0267 111.618 26.2187 111.703 26.336C111.789 26.4427 111.885 26.496 111.991 26.496C112.098 26.496 112.194 26.4427 112.279 26.336C112.365 26.2187 112.45 26.0267 112.535 25.76L114.327 20.56C114.391 20.3893 114.498 20.256 114.647 20.16C114.797 20.064 114.978 20.016 115.191 20.016C115.554 20.016 115.842 20.1013 116.055 20.272C116.269 20.432 116.375 20.64 116.375 20.896C116.375 20.9813 116.359 21.072 116.327 21.168L114.631 26.032C114.141 27.4507 113.261 28.16 111.991 28.16ZM119.049 28.16C118.718 28.16 118.462 28.0747 118.281 27.904C118.1 27.7333 118.009 27.4987 118.009 27.2V16.816C118.009 16.5173 118.1 16.2827 118.281 16.112C118.462 15.9413 118.718 15.856 119.049 15.856C119.369 15.856 119.625 15.9413 119.817 16.112C120.009 16.2827 120.105 16.5173 120.105 16.816V27.2C120.105 27.4987 120.009 27.7333 119.817 27.904C119.625 28.0747 119.369 28.16 119.049 28.16ZM126.26 28.16C125.343 28.16 124.543 27.9947 123.86 27.664C123.178 27.3333 122.65 26.8693 122.276 26.272C121.914 25.664 121.732 24.9547 121.732 24.144C121.732 22.832 122.111 21.8133 122.868 21.088C123.636 20.3627 124.714 20 126.1 20C126.954 20 127.706 20.1333 128.356 20.4C129.018 20.6667 129.53 21.04 129.892 21.52C130.266 21.9893 130.452 22.528 130.452 23.136C130.452 23.648 130.287 24.0427 129.956 24.32C129.636 24.5973 129.178 24.736 128.58 24.736H123.764C123.764 25.3333 123.972 25.7867 124.388 26.096C124.815 26.3947 125.439 26.544 126.26 26.544C127.124 26.544 127.86 26.352 128.468 25.968C128.81 25.7547 129.076 25.648 129.268 25.648C129.45 25.648 129.626 25.7333 129.796 25.904C129.978 26.0853 130.068 26.2827 130.068 26.496C130.068 26.752 129.962 26.9547 129.748 27.104C129.3 27.4453 128.778 27.7067 128.18 27.888C127.583 28.0693 126.943 28.16 126.26 28.16ZM127.94 23.264C128.122 23.264 128.25 23.232 128.324 23.168C128.399 23.0933 128.436 22.976 128.436 22.816C128.436 22.4427 128.223 22.1493 127.796 21.936C127.38 21.7227 126.815 21.616 126.1 21.616C125.386 21.616 124.82 21.7653 124.404 22.064C123.999 22.3627 123.796 22.7627 123.796 23.264H127.94ZM132.807 28.16C132.477 28.16 132.221 28.0747 132.039 27.904C131.858 27.7333 131.767 27.4987 131.767 27.2V20.96C131.767 20.6507 131.853 20.416 132.023 20.256C132.205 20.0853 132.455 20 132.775 20C133.095 20 133.346 20.0853 133.527 20.256C133.709 20.4267 133.799 20.6613 133.799 20.96V21.424C134.557 20.4747 135.591 20 136.903 20C137.927 20 138.733 20.3253 139.319 20.976C139.917 21.616 140.215 22.4907 140.215 23.6V27.2C140.215 27.4987 140.119 27.7333 139.927 27.904C139.735 28.0747 139.479 28.16 139.159 28.16C138.829 28.16 138.573 28.0747 138.391 27.904C138.21 27.7333 138.119 27.4987 138.119 27.2V23.6C138.119 22.992 137.97 22.5173 137.671 22.176C137.373 21.8347 136.957 21.664 136.423 21.664C135.613 21.664 134.983 21.904 134.535 22.384C134.087 22.8533 133.863 23.5147 133.863 24.368V27.2C133.863 27.4987 133.767 27.7333 133.575 27.904C133.383 28.0747 133.127 28.16 132.807 28.16ZM142.971 28.16C142.64 28.16 142.384 28.0747 142.203 27.904C142.022 27.7333 141.931 27.4987 141.931 27.2V16.816C141.931 16.5173 142.022 16.2827 142.203 16.112C142.384 15.9413 142.64 15.856 142.971 15.856C143.291 15.856 143.547 15.9413 143.739 16.112C143.931 16.2827 144.027 16.5173 144.027 16.816V27.2C144.027 27.4987 143.931 27.7333 143.739 27.904C143.547 28.0747 143.291 28.16 142.971 28.16ZM150.422 28.16C149.494 28.16 148.667 27.9947 147.942 27.664C147.227 27.3227 146.667 26.8427 146.262 26.224C145.857 25.6053 145.654 24.8907 145.654 24.08C145.654 23.2693 145.857 22.5547 146.262 21.936C146.667 21.3173 147.227 20.8427 147.942 20.512C148.667 20.1707 149.494 20 150.422 20C151.35 20 152.171 20.1707 152.886 20.512C153.611 20.8427 154.177 21.3173 154.582 21.936C154.987 22.5547 155.19 23.2693 155.19 24.08C155.19 24.8907 154.987 25.6053 154.582 26.224C154.177 26.8427 153.611 27.3227 152.886 27.664C152.171 27.9947 151.35 28.16 150.422 28.16ZM150.422 26.496C151.243 26.496 151.889 26.2827 152.358 25.856C152.838 25.4293 153.078 24.8373 153.078 24.08C153.078 23.3227 152.838 22.7307 152.358 22.304C151.889 21.8773 151.243 21.664 150.422 21.664C149.601 21.664 148.95 21.8773 148.47 22.304C148.001 22.7307 147.766 23.3227 147.766 24.08C147.766 24.8373 148.001 25.4293 148.47 25.856C148.95 26.2827 149.601 26.496 150.422 26.496ZM157.366 28C157.078 28 156.843 27.9147 156.662 27.744C156.491 27.5627 156.406 27.344 156.406 27.088C156.406 26.9173 156.448 26.752 156.534 26.592C156.619 26.4213 156.747 26.272 156.918 26.144L162.134 22.064C162.656 21.6587 163.003 21.3227 163.174 21.056C163.344 20.7893 163.43 20.4533 163.43 20.048C163.43 19.504 163.238 19.0827 162.854 18.784C162.47 18.4747 161.936 18.32 161.254 18.32C160.603 18.32 160.027 18.432 159.526 18.656C159.035 18.8693 158.63 19.1893 158.31 19.616C158.075 19.936 157.808 20.096 157.51 20.096C157.318 20.096 157.142 20.0373 156.982 19.92C156.694 19.728 156.55 19.4773 156.55 19.168C156.55 18.9547 156.64 18.7307 156.822 18.496C157.312 17.8987 157.936 17.44 158.694 17.12C159.451 16.8 160.304 16.64 161.254 16.64C162.608 16.64 163.664 16.944 164.422 17.552C165.179 18.1493 165.558 18.9813 165.558 20.048C165.558 20.6133 165.382 21.1573 165.03 21.68C164.678 22.2027 164.096 22.7787 163.286 23.408L159.526 26.352H164.742C165.371 26.352 165.686 26.6293 165.686 27.184C165.686 27.728 165.371 28 164.742 28H157.366ZM172.152 28.16C171.075 28.16 170.147 27.9307 169.368 27.472C168.589 27.0133 167.992 26.352 167.576 25.488C167.171 24.624 166.968 23.5947 166.968 22.4C166.968 21.2053 167.171 20.176 167.576 19.312C167.992 18.448 168.589 17.7867 169.368 17.328C170.147 16.8693 171.075 16.64 172.152 16.64C173.229 16.64 174.157 16.8693 174.936 17.328C175.715 17.7867 176.307 18.448 176.712 19.312C177.128 20.176 177.336 21.2053 177.336 22.4C177.336 23.5947 177.128 24.624 176.712 25.488C176.307 26.352 175.715 27.0133 174.936 27.472C174.157 27.9307 173.229 28.16 172.152 28.16ZM172.152 26.48C173.112 26.48 173.859 26.1227 174.392 25.408C174.936 24.6827 175.208 23.68 175.208 22.4C175.208 21.12 174.936 20.1227 174.392 19.408C173.859 18.6827 173.112 18.32 172.152 18.32C171.192 18.32 170.44 18.6827 169.896 19.408C169.363 20.1227 169.096 21.12 169.096 22.4C169.096 23.68 169.363 24.6827 169.896 25.408C170.44 26.1227 171.192 26.48 172.152 26.48ZM182.193 28.16C181.873 28.16 181.617 28.0747 181.425 27.904C181.233 27.7333 181.137 27.4987 181.137 27.2V18.896L179.761 19.424C179.569 19.4987 179.382 19.536 179.201 19.536C178.827 19.536 178.561 19.376 178.401 19.056C178.326 18.9067 178.289 18.752 178.289 18.592C178.289 18.2293 178.513 17.968 178.961 17.808L181.921 16.688C182.049 16.6453 182.182 16.624 182.321 16.624C182.598 16.624 182.822 16.7147 182.993 16.896C183.174 17.0773 183.265 17.3173 183.265 17.616V27.2C183.265 27.488 183.163 27.7227 182.961 27.904C182.769 28.0747 182.513 28.16 182.193 28.16ZM189.887 28.16C188.809 28.16 187.881 27.9307 187.103 27.472C186.324 27.0133 185.727 26.352 185.311 25.488C184.905 24.624 184.703 23.5947 184.703 22.4C184.703 21.2053 184.905 20.176 185.311 19.312C185.727 18.448 186.324 17.7867 187.103 17.328C187.881 16.8693 188.809 16.64 189.887 16.64C190.964 16.64 191.892 16.8693 192.671 17.328C193.449 17.7867 194.041 18.448 194.447 19.312C194.863 20.176 195.071 21.2053 195.071 22.4C195.071 23.5947 194.863 24.624 194.447 25.488C194.041 26.352 193.449 27.0133 192.671 27.472C191.892 27.9307 190.964 28.16 189.887 28.16ZM189.887 26.48C190.847 26.48 191.593 26.1227 192.127 25.408C192.671 24.6827 192.943 23.68 192.943 22.4C192.943 21.12 192.671 20.1227 192.127 19.408C191.593 18.6827 190.847 18.32 189.887 18.32C188.927 18.32 188.175 18.6827 187.631 19.408C187.097 20.1227 186.831 21.12 186.831 22.4C186.831 23.68 187.097 24.6827 187.631 25.408C188.175 26.1227 188.927 26.48 189.887 26.48ZM203.095 29.104C201.73 29.104 200.535 28.8533 199.511 28.352C198.498 27.8507 197.714 27.1467 197.159 26.24C196.615 25.3333 196.343 24.288 196.343 23.104C196.343 21.728 196.626 20.56 197.191 19.6C197.756 18.6293 198.578 17.8933 199.655 17.392C200.732 16.88 202.028 16.624 203.543 16.624C204.94 16.624 206.14 16.8587 207.143 17.328C208.156 17.7973 208.924 18.4587 209.447 19.312C209.97 20.1547 210.231 21.1467 210.231 22.288C210.231 23.4613 209.986 24.4373 209.495 25.216C209.004 25.9947 208.263 26.384 207.271 26.384C206.844 26.384 206.487 26.288 206.199 26.096C205.922 25.904 205.719 25.648 205.591 25.328C204.94 26.1067 204.034 26.496 202.871 26.496C201.9 26.496 201.132 26.2933 200.567 25.888C200.002 25.4827 199.719 24.896 199.719 24.128C199.719 23.36 199.98 22.7787 200.503 22.384C201.026 21.9787 201.783 21.776 202.775 21.776C203.639 21.776 204.348 21.968 204.903 22.352V22.176C204.903 21.1627 204.418 20.656 203.447 20.656C202.668 20.656 201.996 20.832 201.431 21.184C201.25 21.312 201.052 21.376 200.839 21.376C200.647 21.376 200.476 21.3013 200.327 21.152C200.188 21.0027 200.119 20.848 200.119 20.688C200.119 20.5067 200.22 20.3253 200.423 20.144C200.764 19.856 201.207 19.632 201.751 19.472C202.295 19.312 202.855 19.232 203.431 19.232C204.54 19.232 205.378 19.4987 205.943 20.032C206.508 20.5547 206.791 21.2373 206.791 22.08V24.464C206.791 24.6027 206.834 24.7147 206.919 24.8C207.004 24.8853 207.122 24.928 207.271 24.928C207.602 24.928 207.836 24.704 207.975 24.256C208.124 23.7973 208.199 23.136 208.199 22.272C208.199 21.024 207.804 20.048 207.015 19.344C206.226 18.64 205.074 18.288 203.559 18.288C201.874 18.288 200.588 18.704 199.703 19.536C198.818 20.3573 198.375 21.568 198.375 23.168C198.375 24.0213 198.567 24.7733 198.951 25.424C199.335 26.064 199.884 26.56 200.599 26.912C201.324 27.264 202.172 27.44 203.143 27.44C203.612 27.44 203.991 27.424 204.279 27.392C204.578 27.36 204.844 27.296 205.079 27.2C205.346 27.104 205.58 27.056 205.783 27.056C206.103 27.056 206.327 27.1573 206.455 27.36C206.583 27.552 206.647 27.728 206.647 27.888C206.647 28.1547 206.471 28.384 206.119 28.576C205.81 28.7467 205.388 28.8747 204.855 28.96C204.332 29.056 203.746 29.104 203.095 29.104ZM203.015 25.184C204.284 25.184 204.919 24.8 204.919 24.032C204.919 23.776 204.77 23.552 204.471 23.36C204.172 23.1573 203.698 23.056 203.047 23.056C202.578 23.056 202.22 23.1573 201.975 23.36C201.73 23.5627 201.607 23.8187 201.607 24.128C201.607 24.448 201.73 24.704 201.975 24.896C202.231 25.088 202.578 25.184 203.015 25.184ZM212.651 28.16C212.32 28.16 212.064 28.0747 211.883 27.904C211.702 27.7333 211.611 27.4987 211.611 27.2V20.96C211.611 20.6613 211.702 20.4267 211.883 20.256C212.064 20.0853 212.32 20 212.651 20C212.971 20 213.227 20.0853 213.419 20.256C213.611 20.4267 213.707 20.6613 213.707 20.96V21.344C213.952 20.9173 214.262 20.5867 214.635 20.352C215.008 20.1173 215.414 20 215.851 20C216.299 20 216.704 20.1227 217.067 20.368C217.43 20.6027 217.702 20.928 217.883 21.344C218.64 20.448 219.499 20 220.459 20C221.312 20 221.979 20.2987 222.459 20.896C222.939 21.4933 223.179 22.3253 223.179 23.392V27.2C223.179 27.4987 223.083 27.7333 222.891 27.904C222.699 28.0747 222.443 28.16 222.123 28.16C221.792 28.16 221.536 28.0747 221.355 27.904C221.174 27.7333 221.083 27.4987 221.083 27.2V23.264C221.083 22.7413 220.987 22.3467 220.795 22.08C220.614 21.8027 220.342 21.664 219.979 21.664C219.67 21.664 219.398 21.7493 219.163 21.92C218.928 22.0907 218.71 22.3627 218.507 22.736V27.2C218.507 27.4987 218.411 27.7333 218.219 27.904C218.027 28.0747 217.771 28.16 217.451 28.16C217.12 28.16 216.864 28.0747 216.683 27.904C216.502 27.7333 216.411 27.4987 216.411 27.2V23.6C216.411 22.3093 216.043 21.664 215.307 21.664C214.806 21.664 214.411 21.8613 214.123 22.256C213.846 22.6507 213.707 23.1947 213.707 23.888V27.2C213.707 27.4987 213.611 27.7333 213.419 27.904C213.227 28.0747 212.971 28.16 212.651 28.16ZM227.764 28.16C227.103 28.16 226.516 28.048 226.004 27.824C225.503 27.6 225.108 27.2907 224.82 26.896C224.543 26.4907 224.404 26.0267 224.404 25.504C224.404 24.7147 224.729 24.0853 225.38 23.616C226.041 23.1467 226.932 22.912 228.052 22.912C229.023 22.912 229.801 23.12 230.388 23.536V23.152C230.388 22.6507 230.233 22.2667 229.924 22C229.615 21.7333 229.167 21.6 228.58 21.6C227.705 21.6 226.953 21.7867 226.324 22.16C226.057 22.3093 225.828 22.384 225.636 22.384C225.401 22.384 225.193 22.2773 225.012 22.064C224.895 21.9147 224.836 21.76 224.836 21.6C224.836 21.3333 224.975 21.0987 225.252 20.896C225.636 20.6187 226.121 20.4 226.708 20.24C227.295 20.08 227.913 20 228.564 20C229.801 20 230.772 20.2827 231.476 20.848C232.191 21.4027 232.548 22.1707 232.548 23.152V27.264C232.548 27.5413 232.452 27.76 232.26 27.92C232.079 28.08 231.828 28.16 231.508 28.16C231.177 28.16 230.921 28.0853 230.74 27.936C230.559 27.7867 230.468 27.5733 230.468 27.296V27.12C229.86 27.8133 228.959 28.16 227.764 28.16ZM228.26 26.688C228.932 26.688 229.455 26.5867 229.828 26.384C230.212 26.1707 230.404 25.8773 230.404 25.504C230.404 25.152 230.212 24.8693 229.828 24.656C229.444 24.4427 228.932 24.336 228.292 24.336C227.716 24.336 227.268 24.4373 226.948 24.64C226.639 24.8427 226.484 25.1307 226.484 25.504C226.484 25.8773 226.639 26.1707 226.948 26.384C227.257 26.5867 227.695 26.688 228.26 26.688ZM235.251 19.008C234.856 19.008 234.536 18.9013 234.291 18.688C234.056 18.464 233.939 18.176 233.939 17.824C233.939 17.472 234.056 17.1893 234.291 16.976C234.536 16.752 234.856 16.64 235.251 16.64C235.646 16.64 235.966 16.752 236.211 16.976C236.467 17.1893 236.595 17.472 236.595 17.824C236.595 18.176 236.467 18.464 236.211 18.688C235.966 18.9013 235.646 19.008 235.251 19.008ZM235.267 28.16C234.936 28.16 234.68 28.0747 234.499 27.904C234.318 27.7333 234.227 27.4987 234.227 27.2V20.96C234.227 20.6613 234.318 20.4267 234.499 20.256C234.68 20.0853 234.936 20 235.267 20C235.587 20 235.843 20.0853 236.035 20.256C236.227 20.4267 236.323 20.6613 236.323 20.96V27.2C236.323 27.4987 236.227 27.7333 236.035 27.904C235.843 28.0747 235.587 28.16 235.267 28.16ZM239.424 28.16C239.093 28.16 238.837 28.0747 238.656 27.904C238.475 27.7333 238.384 27.4987 238.384 27.2V16.816C238.384 16.5173 238.475 16.2827 238.656 16.112C238.837 15.9413 239.093 15.856 239.424 15.856C239.744 15.856 240 15.9413 240.192 16.112C240.384 16.2827 240.48 16.5173 240.48 16.816V27.2C240.48 27.4987 240.384 27.7333 240.192 27.904C240 28.0747 239.744 28.16 239.424 28.16ZM243.467 28C243.094 28 242.785 27.8827 242.539 27.648C242.294 27.4133 242.171 27.1307 242.171 26.8C242.171 26.448 242.294 26.1547 242.539 25.92C242.785 25.6747 243.094 25.552 243.467 25.552C243.841 25.552 244.145 25.6747 244.379 25.92C244.625 26.1653 244.747 26.4587 244.747 26.8C244.747 27.1307 244.625 27.4133 244.379 27.648C244.145 27.8827 243.841 28 243.467 28ZM247.167 28.16C246.836 28.16 246.58 28.0747 246.399 27.904C246.217 27.7333 246.127 27.4987 246.127 27.2V20.96C246.127 20.6507 246.212 20.416 246.383 20.256C246.564 20.0853 246.815 20 247.135 20C247.455 20 247.705 20.0853 247.887 20.256C248.068 20.4267 248.159 20.6613 248.159 20.96V21.488C248.489 21.0613 248.873 20.736 249.311 20.512C249.759 20.2773 250.239 20.16 250.751 20.16H251.103C251.444 20.16 251.705 20.2347 251.887 20.384C252.079 20.5227 252.175 20.7253 252.175 20.992C252.175 21.2587 252.079 21.4667 251.887 21.616C251.705 21.7547 251.444 21.824 251.103 21.824H250.559C249.844 21.824 249.273 22.0533 248.847 22.512C248.431 22.96 248.223 23.5787 248.223 24.368V27.2C248.223 27.4987 248.127 27.7333 247.935 27.904C247.743 28.0747 247.487 28.16 247.167 28.16ZM256.175 28.16C255.077 28.16 254.218 27.8453 253.599 27.216C252.991 26.576 252.687 25.6907 252.687 24.56V20.96C252.687 20.6613 252.783 20.4267 252.975 20.256C253.167 20.0853 253.423 20 253.743 20C254.074 20 254.33 20.0853 254.511 20.256C254.693 20.4267 254.783 20.6613 254.783 20.96V24.56C254.783 25.168 254.943 25.6427 255.263 25.984C255.594 26.3253 256.053 26.496 256.639 26.496C257.397 26.496 257.983 26.256 258.399 25.776C258.826 25.296 259.039 24.6347 259.039 23.792V20.96C259.039 20.6613 259.135 20.4267 259.327 20.256C259.519 20.0853 259.775 20 260.095 20C260.426 20 260.682 20.0853 260.863 20.256C261.045 20.4267 261.135 20.6613 261.135 20.96V27.2C261.135 27.5093 261.045 27.7493 260.863 27.92C260.693 28.08 260.447 28.16 260.127 28.16C259.807 28.16 259.557 28.0747 259.375 27.904C259.194 27.7333 259.103 27.4987 259.103 27.2V26.736C258.709 27.2267 258.271 27.5893 257.791 27.824C257.322 28.048 256.783 28.16 256.175 28.16Z" fill="white"/>
</svg>
