<svg width="267" height="47" viewBox="0 0 267 47" fill="none" xmlns="http://www.w3.org/2000/svg">
<g clip-path="url(#clip0_55_3)">
<path d="M32.3125 2.9375C33.0916 2.9375 33.8387 3.24699 34.3896 3.79787C34.9405 4.34876 35.25 5.09593 35.25 5.875V41.125C35.25 41.9041 34.9405 42.6512 34.3896 43.2021C33.8387 43.753 33.0916 44.0625 32.3125 44.0625H14.6875C13.9084 44.0625 13.1613 43.753 12.6104 43.2021C12.0595 42.6512 11.75 41.9041 11.75 41.125V5.875C11.75 5.09593 12.0595 4.34876 12.6104 3.79787C13.1613 3.24699 13.9084 2.9375 14.6875 2.9375H32.3125ZM14.6875 0C13.1294 0 11.635 0.618972 10.5332 1.72075C9.43147 2.82252 8.8125 4.31685 8.8125 5.875V41.125C8.8125 42.6831 9.43147 44.1775 10.5332 45.2793C11.635 46.381 13.1294 47 14.6875 47H32.3125C33.8706 47 35.365 46.381 36.4668 45.2793C37.5685 44.1775 38.1875 42.6831 38.1875 41.125V5.875C38.1875 4.31685 37.5685 2.82252 36.4668 1.72075C35.365 0.618972 33.8706 0 32.3125 0L14.6875 0Z" fill="white"/>
<path d="M23.5 41.125C24.2791 41.125 25.0262 40.8155 25.5771 40.2646C26.128 39.7137 26.4375 38.9666 26.4375 38.1875C26.4375 37.4084 26.128 36.6613 25.5771 36.1104C25.0262 35.5595 24.2791 35.25 23.5 35.25C22.7209 35.25 21.9738 35.5595 21.4229 36.1104C20.872 36.6613 20.5625 37.4084 20.5625 38.1875C20.5625 38.9666 20.872 39.7137 21.4229 40.2646C21.9738 40.8155 22.7209 41.125 23.5 41.125Z" fill="white"/>
</g>
<path d="M62.696 24.168C63.0267 24.168 63.2827 24.2427 63.464 24.392C63.6453 24.5413 63.736 24.744 63.736 25C63.736 25.2453 63.64 25.4427 63.448 25.592C63.2667 25.7413 63.016 25.816 62.696 25.816H60.52V27.752C60.52 28.0507 60.4293 28.28 60.248 28.44C60.0773 28.6 59.8373 28.68 59.528 28.68C59.2293 28.68 58.9893 28.6 58.808 28.44C58.6373 28.2693 58.552 28.04 58.552 27.752V25.816H56.36C56.04 25.816 55.784 25.7413 55.592 25.592C55.4107 25.4427 55.32 25.2453 55.32 25C55.32 24.744 55.4107 24.5413 55.592 24.392C55.7733 24.2427 56.0293 24.168 56.36 24.168H58.552V22.216C58.552 21.928 58.6373 21.704 58.808 21.544C58.9893 21.3733 59.2293 21.288 59.528 21.288C59.8373 21.288 60.0773 21.368 60.248 21.528C60.4293 21.688 60.52 21.9173 60.52 22.216V24.168H62.696ZM66.4305 29.016C66.1212 28.8347 65.9665 28.5893 65.9665 28.28C65.9665 28.0987 66.0305 27.896 66.1585 27.672L70.9905 19.448H65.3905C65.0918 19.448 64.8465 19.3787 64.6545 19.24C64.4732 19.1013 64.3825 18.8987 64.3825 18.632C64.3825 18.3547 64.4732 18.1467 64.6545 18.008C64.8358 17.8693 65.0812 17.8 65.3905 17.8H72.2865C72.6172 17.8 72.8838 17.88 73.0865 18.04C73.2892 18.2 73.3905 18.424 73.3905 18.712C73.3905 18.9573 73.3105 19.224 73.1505 19.512L67.9025 28.648C67.8065 28.808 67.6785 28.936 67.5185 29.032C67.3585 29.128 67.1825 29.176 66.9905 29.176C66.7985 29.176 66.6118 29.1227 66.4305 29.016ZM82.1124 30.984C81.9204 31.08 81.7284 31.128 81.5364 31.128C81.1844 31.128 80.8857 30.9573 80.6404 30.616C79.979 29.6667 79.4777 28.664 79.1364 27.608C78.795 26.552 78.6244 25.3893 78.6244 24.12C78.6244 22.8507 78.795 21.688 79.1364 20.632C79.4777 19.576 79.979 18.5733 80.6404 17.624C80.8857 17.2827 81.1844 17.112 81.5364 17.112C81.7284 17.112 81.9204 17.16 82.1124 17.256C82.4644 17.4587 82.6404 17.688 82.6404 17.944C82.6404 18.1253 82.5764 18.296 82.4484 18.456C81.3284 19.992 80.7684 21.88 80.7684 24.12C80.7684 26.392 81.323 28.2747 82.4324 29.768C82.571 29.9493 82.6404 30.1253 82.6404 30.296C82.6404 30.5627 82.4644 30.792 82.1124 30.984ZM88.6733 29.16C87.8626 29.16 87.1426 29.0587 86.5133 28.856C85.8839 28.6427 85.2973 28.328 84.7533 27.912C84.5186 27.7307 84.4013 27.5013 84.4013 27.224C84.4013 26.9467 84.5293 26.712 84.7853 26.52C84.9559 26.3813 85.1266 26.312 85.2973 26.312C85.4253 26.312 85.5479 26.344 85.6653 26.408C85.7933 26.472 85.9533 26.568 86.1453 26.696C86.5933 27.016 86.9933 27.2293 87.3453 27.336C87.6973 27.4427 88.1399 27.496 88.6733 27.496C89.5799 27.496 90.2946 27.208 90.8173 26.632C91.3399 26.0453 91.6013 25.1867 91.6013 24.056L91.5693 24.04C91.2493 24.488 90.7959 24.8453 90.2093 25.112C89.6333 25.368 89.0199 25.496 88.3693 25.496C87.4946 25.496 86.7213 25.3413 86.0493 25.032C85.3773 24.7227 84.8546 24.2747 84.4813 23.688C84.1079 23.0907 83.9213 22.3867 83.9213 21.576C83.9213 20.3387 84.3373 19.3733 85.1693 18.68C86.0013 17.9867 87.1479 17.64 88.6093 17.64C90.2839 17.64 91.5373 18.152 92.3693 19.176C93.2013 20.2 93.6173 21.6133 93.6173 23.416C93.6173 24.6107 93.4146 25.64 93.0093 26.504C92.6146 27.368 92.0439 28.0293 91.2973 28.488C90.5613 28.936 89.6866 29.16 88.6733 29.16ZM88.6093 23.832C89.3986 23.832 90.0226 23.6347 90.4813 23.24C90.9399 22.8453 91.1693 22.2853 91.1693 21.56C91.1693 20.856 90.9399 20.3067 90.4813 19.912C90.0226 19.5173 89.3986 19.32 88.6093 19.32C87.8199 19.32 87.1959 19.5173 86.7373 19.912C86.2786 20.3067 86.0493 20.856 86.0493 21.56C86.0493 22.296 86.2733 22.8613 86.7213 23.256C87.1799 23.64 87.8093 23.832 88.6093 23.832ZM99.898 29.16C98.8633 29.16 97.9673 28.9307 97.21 28.472C96.4633 28.0133 95.8873 27.352 95.482 26.488C95.0873 25.624 94.89 24.5893 94.89 23.384C94.89 22.1893 95.0927 21.16 95.498 20.296C95.914 19.432 96.506 18.776 97.274 18.328C98.042 17.8693 98.9487 17.64 99.994 17.64C101.551 17.64 102.869 18.104 103.946 19.032C104.181 19.2453 104.298 19.4693 104.298 19.704C104.298 19.928 104.186 20.1467 103.962 20.36C103.791 20.52 103.605 20.6 103.402 20.6C103.157 20.6 102.885 20.4827 102.586 20.248C102.138 19.9067 101.711 19.6667 101.306 19.528C100.911 19.3893 100.474 19.32 99.994 19.32C99.034 19.32 98.2767 19.6453 97.722 20.296C97.178 20.936 96.906 21.784 96.906 22.84L96.938 22.856C97.258 22.408 97.706 22.056 98.282 21.8C98.8687 21.5333 99.4873 21.4 100.138 21.4C101.525 21.4 102.613 21.736 103.402 22.408C104.191 23.08 104.586 24.0347 104.586 25.272C104.586 26.5093 104.17 27.4693 103.338 28.152C102.506 28.824 101.359 29.16 99.898 29.16ZM99.898 27.48C100.645 27.48 101.258 27.2827 101.738 26.888C102.218 26.4827 102.458 25.9493 102.458 25.288C102.458 24.5947 102.218 24.0507 101.738 23.656C101.269 23.2613 100.655 23.064 99.898 23.064C99.1513 23.064 98.538 23.272 98.058 23.688C97.578 24.0933 97.338 24.6267 97.338 25.288C97.338 25.9493 97.578 26.4827 98.058 26.888C98.538 27.2827 99.1513 27.48 99.898 27.48ZM110.771 29.16C109.213 29.16 108.003 28.872 107.139 28.296C106.285 27.7093 105.859 26.8773 105.859 25.8C105.859 25.2453 106.045 24.7387 106.419 24.28C106.792 23.8107 107.299 23.432 107.939 23.144V23.112C107.427 22.8667 107.021 22.5413 106.723 22.136C106.424 21.7307 106.275 21.288 106.275 20.808C106.275 19.8053 106.669 19.0267 107.459 18.472C108.248 17.9173 109.352 17.64 110.771 17.64C112.189 17.64 113.293 17.9173 114.083 18.472C114.872 19.0267 115.267 19.8053 115.267 20.808C115.267 21.288 115.117 21.7307 114.819 22.136C114.52 22.5413 114.115 22.8667 113.603 23.112V23.144C114.243 23.432 114.749 23.8107 115.123 24.28C115.496 24.7387 115.683 25.2453 115.683 25.8C115.683 26.8773 115.251 27.7093 114.387 28.296C113.533 28.872 112.328 29.16 110.771 29.16ZM110.771 22.328C111.507 22.328 112.083 22.1947 112.499 21.928C112.925 21.6507 113.139 21.2773 113.139 20.808C113.139 20.328 112.931 19.96 112.515 19.704C112.099 19.448 111.517 19.32 110.771 19.32C110.024 19.32 109.443 19.448 109.027 19.704C108.611 19.96 108.403 20.328 108.403 20.808C108.403 21.2773 108.611 21.6507 109.027 21.928C109.453 22.1947 110.035 22.328 110.771 22.328ZM110.771 27.48C111.656 27.48 112.339 27.336 112.819 27.048C113.309 26.76 113.555 26.344 113.555 25.8C113.555 25.2027 113.309 24.744 112.819 24.424C112.328 24.104 111.645 23.944 110.771 23.944C109.896 23.944 109.213 24.104 108.723 24.424C108.232 24.744 107.987 25.2027 107.987 25.8C107.987 26.344 108.227 26.76 108.707 27.048C109.197 27.336 109.885 27.48 110.771 27.48ZM117.496 30.984C117.144 30.792 116.968 30.5627 116.968 30.296C116.968 30.1253 117.037 29.9493 117.176 29.768C118.285 28.2747 118.84 26.392 118.84 24.12C118.84 21.88 118.28 19.992 117.16 18.456C117.032 18.296 116.968 18.1253 116.968 17.944C116.968 17.688 117.144 17.4587 117.496 17.256C117.688 17.16 117.88 17.112 118.072 17.112C118.424 17.112 118.723 17.2827 118.968 17.624C119.629 18.5733 120.131 19.576 120.472 20.632C120.813 21.688 120.984 22.8507 120.984 24.12C120.984 25.3893 120.813 26.552 120.472 27.608C120.131 28.664 119.629 29.6667 118.968 30.616C118.723 30.9573 118.424 31.128 118.072 31.128C117.88 31.128 117.688 31.08 117.496 30.984ZM131.298 29.16C130.488 29.16 129.768 29.0587 129.138 28.856C128.509 28.6427 127.922 28.328 127.378 27.912C127.144 27.7307 127.026 27.5013 127.026 27.224C127.026 26.9467 127.154 26.712 127.41 26.52C127.581 26.3813 127.752 26.312 127.922 26.312C128.05 26.312 128.173 26.344 128.29 26.408C128.418 26.472 128.578 26.568 128.77 26.696C129.218 27.016 129.618 27.2293 129.97 27.336C130.322 27.4427 130.765 27.496 131.298 27.496C132.205 27.496 132.92 27.208 133.442 26.632C133.965 26.0453 134.226 25.1867 134.226 24.056L134.194 24.04C133.874 24.488 133.421 24.8453 132.834 25.112C132.258 25.368 131.645 25.496 130.994 25.496C130.12 25.496 129.346 25.3413 128.674 25.032C128.002 24.7227 127.48 24.2747 127.106 23.688C126.733 23.0907 126.546 22.3867 126.546 21.576C126.546 20.3387 126.962 19.3733 127.794 18.68C128.626 17.9867 129.773 17.64 131.234 17.64C132.909 17.64 134.162 18.152 134.994 19.176C135.826 20.2 136.242 21.6133 136.242 23.416C136.242 24.6107 136.04 25.64 135.634 26.504C135.24 27.368 134.669 28.0293 133.922 28.488C133.186 28.936 132.312 29.16 131.298 29.16ZM131.234 23.832C132.024 23.832 132.648 23.6347 133.106 23.24C133.565 22.8453 133.794 22.2853 133.794 21.56C133.794 20.856 133.565 20.3067 133.106 19.912C132.648 19.5173 132.024 19.32 131.234 19.32C130.445 19.32 129.821 19.5173 129.362 19.912C128.904 20.3067 128.674 20.856 128.674 21.56C128.674 22.296 128.898 22.8613 129.346 23.256C129.805 23.64 130.434 23.832 131.234 23.832ZM142.699 29.16C141.622 29.16 140.694 28.9307 139.915 28.472C139.136 28.0133 138.539 27.352 138.123 26.488C137.718 25.624 137.515 24.5947 137.515 23.4C137.515 22.2053 137.718 21.176 138.123 20.312C138.539 19.448 139.136 18.7867 139.915 18.328C140.694 17.8693 141.622 17.64 142.699 17.64C143.776 17.64 144.704 17.8693 145.483 18.328C146.262 18.7867 146.854 19.448 147.259 20.312C147.675 21.176 147.883 22.2053 147.883 23.4C147.883 24.5947 147.675 25.624 147.259 26.488C146.854 27.352 146.262 28.0133 145.483 28.472C144.704 28.9307 143.776 29.16 142.699 29.16ZM142.699 27.48C143.659 27.48 144.406 27.1227 144.939 26.408C145.483 25.6827 145.755 24.68 145.755 23.4C145.755 22.12 145.483 21.1227 144.939 20.408C144.406 19.6827 143.659 19.32 142.699 19.32C141.739 19.32 140.987 19.6827 140.443 20.408C139.91 21.1227 139.643 22.12 139.643 23.4C139.643 24.68 139.91 25.6827 140.443 26.408C140.987 27.1227 141.739 27.48 142.699 27.48ZM154.34 29.16C153.262 29.16 152.334 28.9307 151.556 28.472C150.777 28.0133 150.18 27.352 149.764 26.488C149.358 25.624 149.156 24.5947 149.156 23.4C149.156 22.2053 149.358 21.176 149.764 20.312C150.18 19.448 150.777 18.7867 151.556 18.328C152.334 17.8693 153.262 17.64 154.34 17.64C155.417 17.64 156.345 17.8693 157.124 18.328C157.902 18.7867 158.494 19.448 158.9 20.312C159.316 21.176 159.524 22.2053 159.524 23.4C159.524 24.5947 159.316 25.624 158.9 26.488C158.494 27.352 157.902 28.0133 157.124 28.472C156.345 28.9307 155.417 29.16 154.34 29.16ZM154.34 27.48C155.3 27.48 156.046 27.1227 156.58 26.408C157.124 25.6827 157.396 24.68 157.396 23.4C157.396 22.12 157.124 21.1227 156.58 20.408C156.046 19.6827 155.3 19.32 154.34 19.32C153.38 19.32 152.628 19.6827 152.084 20.408C151.55 21.1227 151.284 22.12 151.284 23.4C151.284 24.68 151.55 25.6827 152.084 26.408C152.628 27.1227 153.38 27.48 154.34 27.48ZM161.82 25.928C161.5 25.928 161.25 25.8587 161.068 25.72C160.887 25.5707 160.796 25.368 160.796 25.112C160.796 24.856 160.882 24.6533 161.052 24.504C161.234 24.3547 161.49 24.28 161.82 24.28H166.588C166.919 24.28 167.17 24.3547 167.34 24.504C167.522 24.6533 167.612 24.856 167.612 25.112C167.612 25.368 167.522 25.5707 167.34 25.72C167.159 25.8587 166.908 25.928 166.588 25.928H161.82ZM173.69 29.16C172.751 29.16 171.887 28.9893 171.098 28.648C170.309 28.3067 169.658 27.8213 169.146 27.192C168.975 26.9893 168.89 26.7707 168.89 26.536C168.89 26.2267 169.034 25.976 169.322 25.784C169.493 25.656 169.674 25.592 169.866 25.592C170.165 25.592 170.431 25.752 170.666 26.072C171.018 26.5307 171.45 26.8827 171.962 27.128C172.485 27.3627 173.061 27.48 173.69 27.48C174.511 27.48 175.146 27.336 175.594 27.048C176.042 26.76 176.266 26.3547 176.266 25.832C176.266 25.1813 176.122 24.7067 175.834 24.408C175.546 24.1093 175.093 23.96 174.474 23.96H172.73C172.41 23.96 172.154 23.8853 171.962 23.736C171.781 23.5867 171.69 23.3893 171.69 23.144C171.69 22.8773 171.781 22.6747 171.962 22.536C172.143 22.3867 172.399 22.312 172.73 22.312H174.474C174.943 22.312 175.311 22.1787 175.578 21.912C175.855 21.6347 175.994 21.2507 175.994 20.76C175.994 20.2907 175.797 19.9333 175.402 19.688C175.007 19.4427 174.437 19.32 173.69 19.32C172.602 19.32 171.733 19.6933 171.082 20.44C170.805 20.7493 170.533 20.904 170.266 20.904C170.085 20.904 169.909 20.84 169.738 20.712C169.45 20.52 169.306 20.2693 169.306 19.96C169.306 19.7147 169.402 19.496 169.594 19.304C170.106 18.7707 170.714 18.36 171.418 18.072C172.122 17.784 172.879 17.64 173.69 17.64C174.565 17.64 175.333 17.7733 175.994 18.04C176.666 18.296 177.189 18.664 177.562 19.144C177.935 19.6133 178.122 20.152 178.122 20.76C178.122 21.2293 177.989 21.6613 177.722 22.056C177.466 22.4507 177.087 22.7867 176.586 23.064V23.096C177.205 23.3947 177.658 23.768 177.946 24.216C178.245 24.664 178.394 25.2027 178.394 25.832C178.394 26.888 177.983 27.7093 177.162 28.296C176.341 28.872 175.183 29.16 173.69 29.16ZM184.471 29.16C183.533 29.16 182.669 28.9893 181.879 28.648C181.09 28.3067 180.439 27.8213 179.927 27.192C179.757 26.9893 179.671 26.7707 179.671 26.536C179.671 26.2267 179.815 25.976 180.103 25.784C180.274 25.656 180.455 25.592 180.647 25.592C180.946 25.592 181.213 25.752 181.447 26.072C181.799 26.5307 182.231 26.8827 182.743 27.128C183.266 27.3627 183.842 27.48 184.471 27.48C185.293 27.48 185.927 27.336 186.375 27.048C186.823 26.76 187.047 26.3547 187.047 25.832C187.047 25.1813 186.903 24.7067 186.615 24.408C186.327 24.1093 185.874 23.96 185.255 23.96H183.511C183.191 23.96 182.935 23.8853 182.743 23.736C182.562 23.5867 182.471 23.3893 182.471 23.144C182.471 22.8773 182.562 22.6747 182.743 22.536C182.925 22.3867 183.181 22.312 183.511 22.312H185.255C185.725 22.312 186.093 22.1787 186.359 21.912C186.637 21.6347 186.775 21.2507 186.775 20.76C186.775 20.2907 186.578 19.9333 186.183 19.688C185.789 19.4427 185.218 19.32 184.471 19.32C183.383 19.32 182.514 19.6933 181.863 20.44C181.586 20.7493 181.314 20.904 181.047 20.904C180.866 20.904 180.69 20.84 180.519 20.712C180.231 20.52 180.087 20.2693 180.087 19.96C180.087 19.7147 180.183 19.496 180.375 19.304C180.887 18.7707 181.495 18.36 182.199 18.072C182.903 17.784 183.661 17.64 184.471 17.64C185.346 17.64 186.114 17.7733 186.775 18.04C187.447 18.296 187.97 18.664 188.343 19.144C188.717 19.6133 188.903 20.152 188.903 20.76C188.903 21.2293 188.77 21.6613 188.503 22.056C188.247 22.4507 187.869 22.7867 187.367 23.064V23.096C187.986 23.3947 188.439 23.768 188.727 24.216C189.026 24.664 189.175 25.2027 189.175 25.832C189.175 26.888 188.765 27.7093 187.943 28.296C187.122 28.872 185.965 29.16 184.471 29.16ZM191.477 25.928C191.157 25.928 190.906 25.8587 190.725 25.72C190.543 25.5707 190.453 25.368 190.453 25.112C190.453 24.856 190.538 24.6533 190.709 24.504C190.89 24.3547 191.146 24.28 191.477 24.28H196.245C196.575 24.28 196.826 24.3547 196.997 24.504C197.178 24.6533 197.269 24.856 197.269 25.112C197.269 25.368 197.178 25.5707 196.997 25.72C196.815 25.8587 196.565 25.928 196.245 25.928H191.477ZM203.362 29.16C202.445 29.16 201.581 28.9893 200.77 28.648C199.96 28.296 199.304 27.8107 198.802 27.192C198.632 26.968 198.546 26.744 198.546 26.52C198.546 26.2213 198.69 25.976 198.978 25.784C199.149 25.656 199.33 25.592 199.522 25.592C199.832 25.592 200.098 25.752 200.322 26.072C200.653 26.52 201.085 26.8667 201.618 27.112C202.152 27.3573 202.728 27.48 203.346 27.48C204.285 27.48 204.994 27.272 205.474 26.856C205.965 26.44 206.21 25.8533 206.21 25.096C206.21 24.3493 205.986 23.7733 205.538 23.368C205.09 22.952 204.434 22.744 203.57 22.744C203.069 22.744 202.605 22.8293 202.178 23C201.762 23.16 201.432 23.384 201.186 23.672C201.026 23.864 200.845 24.0133 200.642 24.12C200.45 24.2267 200.258 24.28 200.066 24.28C199.96 24.28 199.858 24.264 199.762 24.232C199.506 24.1467 199.309 24.0187 199.17 23.848C199.042 23.6773 198.994 23.4747 199.026 23.24L199.65 19.112C199.714 18.696 199.906 18.376 200.226 18.152C200.546 17.9173 200.957 17.8 201.458 17.8H206.802C207.112 17.8 207.352 17.8693 207.522 18.008C207.704 18.1467 207.794 18.3547 207.794 18.632C207.794 18.8987 207.704 19.1013 207.522 19.24C207.341 19.3787 207.101 19.448 206.802 19.448H202.114C201.965 19.448 201.837 19.496 201.73 19.592C201.634 19.6773 201.576 19.8 201.554 19.96L201.266 21.864C201.65 21.608 202.072 21.4107 202.53 21.272C203 21.1333 203.469 21.064 203.938 21.064C204.845 21.064 205.629 21.2293 206.29 21.56C206.952 21.88 207.458 22.344 207.81 22.952C208.162 23.56 208.338 24.2693 208.338 25.08C208.338 25.9013 208.141 26.6213 207.746 27.24C207.352 27.848 206.781 28.3227 206.034 28.664C205.288 28.9947 204.397 29.16 203.362 29.16ZM216.44 29.16C216.131 29.16 215.88 29.064 215.688 28.872C215.496 28.68 215.4 28.4293 215.4 28.12V26.728H210.28C209.982 26.728 209.742 26.6587 209.56 26.52C209.39 26.3813 209.304 26.2053 209.304 25.992C209.304 25.7787 209.39 25.5707 209.56 25.368L215.64 17.992C215.726 17.8853 215.848 17.8 216.008 17.736C216.179 17.672 216.344 17.64 216.504 17.64C216.771 17.64 217 17.72 217.192 17.88C217.395 18.0293 217.496 18.2267 217.496 18.472V25.08H218.28C218.59 25.08 218.83 25.1493 219 25.288C219.182 25.4267 219.272 25.6347 219.272 25.912C219.272 26.1787 219.182 26.3813 219 26.52C218.819 26.6587 218.579 26.728 218.28 26.728H217.496V28.12C217.496 28.4187 217.395 28.6693 217.192 28.872C217 29.064 216.75 29.16 216.44 29.16ZM215.544 25.096V20.84L211.992 25.096H215.544Z" fill="white"/>
<defs>
<clipPath id="clip0_55_3">
<rect width="47" height="47" fill="white"/>
</clipPath>
</defs>
</svg>
