<svg width="309" height="49" viewBox="0 0 309 49" fill="none" xmlns="http://www.w3.org/2000/svg">
<path d="M48 24.5C48 30.7326 45.5241 36.7099 41.117 41.117C36.7099 45.5241 30.7326 48 24.5 48C18.2674 48 12.2901 45.5241 7.88299 41.117C3.47589 36.7099 1 30.7326 1 24.5M48 24.5C48 18.2674 45.5241 12.2901 41.117 7.88299C36.7099 3.47589 30.7326 1 24.5 1C18.2674 1 12.2901 3.47589 7.88299 7.88299C3.47589 12.2901 1 18.2674 1 24.5M48 24.5H1" stroke="white" stroke-linecap="round" stroke-linejoin="round"/>
<path d="M33.5385 24.5C33.0945 33.0937 29.9292 41.3236 24.5 48C19.0709 41.3236 15.9055 33.0937 15.4615 24.5C15.9055 15.9063 19.0709 7.67636 24.5 1C29.9292 7.67636 33.0945 15.9063 33.5385 24.5Z" stroke="white" stroke-linecap="round" stroke-linejoin="round"/>
<path d="M59.968 30.16C58.784 30.16 58.032 29.456 57.712 28.048L56.608 23.088C56.5867 22.96 56.576 22.8747 56.576 22.832C56.576 22.5653 56.6667 22.3627 56.848 22.224C57.04 22.0747 57.3067 22 57.648 22C57.9893 22 58.2667 22.0747 58.48 22.224C58.6933 22.3733 58.8213 22.5813 58.864 22.848L59.744 28.16C59.776 28.384 59.8507 28.496 59.968 28.496C60.096 28.496 60.176 28.3893 60.208 28.176L60.816 23.76C60.9013 23.1947 61.1093 22.7627 61.44 22.464C61.7707 22.1547 62.1973 22 62.72 22C63.2427 22 63.6693 22.1547 64 22.464C64.3307 22.7627 64.5387 23.1947 64.624 23.76L65.232 28.176C65.264 28.3893 65.344 28.496 65.472 28.496C65.5893 28.496 65.664 28.384 65.696 28.16L66.576 22.848C66.6187 22.5813 66.7467 22.3733 66.96 22.224C67.1733 22.0747 67.4507 22 67.792 22C68.1333 22 68.3947 22.0747 68.576 22.224C68.768 22.3627 68.864 22.5653 68.864 22.832C68.864 22.8747 68.8533 22.96 68.832 23.088L67.728 28.048C67.408 29.456 66.656 30.16 65.472 30.16C64.8853 30.16 64.432 29.9787 64.112 29.616C63.792 29.2533 63.5787 28.688 63.472 27.92L62.944 23.984C62.9333 23.8667 62.9067 23.7867 62.864 23.744C62.832 23.6907 62.784 23.664 62.72 23.664C62.656 23.664 62.6027 23.6907 62.56 23.744C62.528 23.7867 62.5067 23.8667 62.496 23.984L61.968 27.92C61.8613 28.688 61.648 29.2533 61.328 29.616C61.008 29.9787 60.5547 30.16 59.968 30.16ZM73.1711 30.16C71.9871 30.16 71.2351 29.456 70.9151 28.048L69.8111 23.088C69.7898 22.96 69.7791 22.8747 69.7791 22.832C69.7791 22.5653 69.8698 22.3627 70.0511 22.224C70.2431 22.0747 70.5098 22 70.8511 22C71.1925 22 71.4698 22.0747 71.6831 22.224C71.8965 22.3733 72.0245 22.5813 72.0671 22.848L72.9471 28.16C72.9791 28.384 73.0538 28.496 73.1711 28.496C73.2991 28.496 73.3791 28.3893 73.4111 28.176L74.0191 23.76C74.1045 23.1947 74.3125 22.7627 74.6431 22.464C74.9738 22.1547 75.4005 22 75.9231 22C76.4458 22 76.8725 22.1547 77.2031 22.464C77.5338 22.7627 77.7418 23.1947 77.8271 23.76L78.4351 28.176C78.4671 28.3893 78.5471 28.496 78.6751 28.496C78.7925 28.496 78.8671 28.384 78.8991 28.16L79.7791 22.848C79.8218 22.5813 79.9498 22.3733 80.1631 22.224C80.3765 22.0747 80.6538 22 80.9951 22C81.3365 22 81.5978 22.0747 81.7791 22.224C81.9711 22.3627 82.0671 22.5653 82.0671 22.832C82.0671 22.8747 82.0565 22.96 82.0351 23.088L80.9311 28.048C80.6111 29.456 79.8591 30.16 78.6751 30.16C78.0885 30.16 77.6351 29.9787 77.3151 29.616C76.9951 29.2533 76.7818 28.688 76.6751 27.92L76.1471 23.984C76.1365 23.8667 76.1098 23.7867 76.0671 23.744C76.0351 23.6907 75.9871 23.664 75.9231 23.664C75.8591 23.664 75.8058 23.6907 75.7631 23.744C75.7311 23.7867 75.7098 23.8667 75.6991 23.984L75.1711 27.92C75.0645 28.688 74.8511 29.2533 74.5311 29.616C74.2111 29.9787 73.7578 30.16 73.1711 30.16ZM86.3743 30.16C85.1903 30.16 84.4383 29.456 84.1183 28.048L83.0143 23.088C82.9929 22.96 82.9823 22.8747 82.9823 22.832C82.9823 22.5653 83.0729 22.3627 83.2543 22.224C83.4463 22.0747 83.7129 22 84.0543 22C84.3956 22 84.6729 22.0747 84.8863 22.224C85.0996 22.3733 85.2276 22.5813 85.2703 22.848L86.1503 28.16C86.1823 28.384 86.2569 28.496 86.3743 28.496C86.5023 28.496 86.5823 28.3893 86.6143 28.176L87.2223 23.76C87.3076 23.1947 87.5156 22.7627 87.8463 22.464C88.1769 22.1547 88.6036 22 89.1263 22C89.6489 22 90.0756 22.1547 90.4062 22.464C90.7369 22.7627 90.9449 23.1947 91.0303 23.76L91.6383 28.176C91.6703 28.3893 91.7503 28.496 91.8783 28.496C91.9956 28.496 92.0703 28.384 92.1023 28.16L92.9823 22.848C93.0249 22.5813 93.1529 22.3733 93.3663 22.224C93.5796 22.0747 93.8569 22 94.1983 22C94.5396 22 94.8009 22.0747 94.9823 22.224C95.1743 22.3627 95.2703 22.5653 95.2703 22.832C95.2703 22.8747 95.2596 22.96 95.2383 23.088L94.1343 28.048C93.8143 29.456 93.0623 30.16 91.8783 30.16C91.2916 30.16 90.8383 29.9787 90.5183 29.616C90.1983 29.2533 89.9849 28.688 89.8783 27.92L89.3503 23.984C89.3396 23.8667 89.3129 23.7867 89.2703 23.744C89.2383 23.6907 89.1903 23.664 89.1263 23.664C89.0623 23.664 89.0089 23.6907 88.9663 23.744C88.9343 23.7867 88.9129 23.8667 88.9023 23.984L88.3743 27.92C88.2676 28.688 88.0543 29.2533 87.7343 29.616C87.4143 29.9787 86.9609 30.16 86.3743 30.16ZM97.7798 30C97.4064 30 97.0971 29.8827 96.8518 29.648C96.6064 29.4133 96.4838 29.1307 96.4838 28.8C96.4838 28.448 96.6064 28.1547 96.8518 27.92C97.0971 27.6747 97.4064 27.552 97.7798 27.552C98.1531 27.552 98.4571 27.6747 98.6918 27.92C98.9371 28.1653 99.0598 28.4587 99.0598 28.8C99.0598 29.1307 98.9371 29.4133 98.6918 29.648C98.4571 29.8827 98.1531 30 97.7798 30ZM102.135 30.16C101.815 30.16 101.559 30.0747 101.367 29.904C101.175 29.7333 101.079 29.4987 101.079 29.2V19.6C101.079 19.3013 101.175 19.0667 101.367 18.896C101.559 18.7253 101.815 18.64 102.135 18.64C102.444 18.64 102.7 18.7253 102.903 18.896C103.106 19.0667 103.207 19.3013 103.207 19.6V29.2C103.207 29.4987 103.106 29.7333 102.903 29.904C102.7 30.0747 102.444 30.16 102.135 30.16ZM106.674 30.16C106.343 30.16 106.087 30.0747 105.906 29.904C105.725 29.7333 105.634 29.4987 105.634 29.2V18.816C105.634 18.5173 105.725 18.2827 105.906 18.112C106.087 17.9413 106.343 17.856 106.674 17.856C106.994 17.856 107.25 17.9413 107.442 18.112C107.634 18.2827 107.73 18.5173 107.73 18.816V29.2C107.73 29.4987 107.634 29.7333 107.442 29.904C107.25 30.0747 106.994 30.16 106.674 30.16ZM113.485 34C112.707 34 111.997 33.8773 111.357 33.632C110.728 33.3973 110.243 33.0667 109.901 32.64C109.763 32.4587 109.693 32.272 109.693 32.08C109.693 31.824 109.816 31.5893 110.061 31.376C110.221 31.248 110.397 31.184 110.589 31.184C110.877 31.184 111.155 31.328 111.421 31.616C111.88 32.1067 112.552 32.352 113.437 32.352C114.195 32.352 114.765 32.1493 115.149 31.744C115.544 31.3493 115.741 30.768 115.741 30V29.328C115.485 29.5733 115.155 29.776 114.749 29.936C114.344 30.0853 113.96 30.16 113.597 30.16C112.264 30.16 111.224 29.808 110.477 29.104C109.731 28.3893 109.357 27.3973 109.357 26.128V22.896C109.357 22.64 109.459 22.4267 109.661 22.256C109.864 22.0853 110.115 22 110.413 22C110.701 22 110.947 22.0907 111.149 22.272C111.352 22.4427 111.453 22.6507 111.453 22.896V26.128C111.453 26.896 111.64 27.4933 112.013 27.92C112.397 28.3467 112.925 28.56 113.597 28.56C114.248 28.56 114.755 28.3467 115.117 27.92C115.48 27.4933 115.661 26.896 115.661 26.128V23.072C115.661 22.7307 115.752 22.4693 115.933 22.288C116.125 22.096 116.387 22 116.717 22C117.048 22 117.304 22.096 117.485 22.288C117.667 22.4693 117.757 22.7307 117.757 23.072V29.728C117.757 31.072 117.379 32.1173 116.621 32.864C115.875 33.6213 114.829 34 113.485 34ZM122.436 30.16C121.775 30.16 121.188 30.048 120.676 29.824C120.175 29.6 119.78 29.2907 119.492 28.896C119.215 28.4907 119.076 28.0267 119.076 27.504C119.076 26.7147 119.401 26.0853 120.052 25.616C120.713 25.1467 121.604 24.912 122.724 24.912C123.695 24.912 124.473 25.12 125.06 25.536V25.152C125.06 24.6507 124.905 24.2667 124.596 24C124.287 23.7333 123.839 23.6 123.252 23.6C122.377 23.6 121.625 23.7867 120.996 24.16C120.729 24.3093 120.5 24.384 120.308 24.384C120.073 24.384 119.865 24.2773 119.684 24.064C119.567 23.9147 119.508 23.76 119.508 23.6C119.508 23.3333 119.647 23.0987 119.924 22.896C120.308 22.6187 120.793 22.4 121.38 22.24C121.967 22.08 122.585 22 123.236 22C124.473 22 125.444 22.2827 126.148 22.848C126.863 23.4027 127.22 24.1707 127.22 25.152V29.264C127.22 29.5413 127.124 29.76 126.932 29.92C126.751 30.08 126.5 30.16 126.18 30.16C125.849 30.16 125.593 30.0853 125.412 29.936C125.231 29.7867 125.14 29.5733 125.14 29.296V29.12C124.532 29.8133 123.631 30.16 122.436 30.16ZM122.932 28.688C123.604 28.688 124.127 28.5867 124.5 28.384C124.884 28.1707 125.076 27.8773 125.076 27.504C125.076 27.152 124.884 26.8693 124.5 26.656C124.116 26.4427 123.604 26.336 122.964 26.336C122.388 26.336 121.94 26.4373 121.62 26.64C121.311 26.8427 121.156 27.1307 121.156 27.504C121.156 27.8773 121.311 28.1707 121.62 28.384C121.929 28.5867 122.367 28.688 122.932 28.688ZM129.827 30.16C129.507 30.16 129.251 30.0747 129.059 29.904C128.867 29.7333 128.771 29.4987 128.771 29.2V21.168C128.771 20.4213 128.984 19.84 129.411 19.424C129.848 19.008 130.451 18.8 131.219 18.8H133.923C135.544 18.8 136.776 19.136 137.619 19.808C138.462 20.48 138.883 21.4667 138.883 22.768C138.883 24.0693 138.472 25.056 137.651 25.728C136.83 26.4 135.619 26.736 134.019 26.736H130.899V29.2C130.899 29.488 130.798 29.7227 130.595 29.904C130.403 30.0747 130.147 30.16 129.827 30.16ZM134.003 25.088C135.827 25.088 136.739 24.3147 136.739 22.768C136.739 21.2213 135.827 20.448 134.003 20.448H131.587C131.374 20.448 131.203 20.5173 131.075 20.656C130.958 20.7947 130.899 20.9867 130.899 21.232V25.088H134.003ZM142.842 30.16C142.181 30.16 141.594 30.048 141.082 29.824C140.581 29.6 140.186 29.2907 139.898 28.896C139.621 28.4907 139.482 28.0267 139.482 27.504C139.482 26.7147 139.808 26.0853 140.458 25.616C141.12 25.1467 142.01 24.912 143.13 24.912C144.101 24.912 144.88 25.12 145.466 25.536V25.152C145.466 24.6507 145.312 24.2667 145.002 24C144.693 23.7333 144.245 23.6 143.658 23.6C142.784 23.6 142.032 23.7867 141.402 24.16C141.136 24.3093 140.906 24.384 140.714 24.384C140.48 24.384 140.272 24.2773 140.09 24.064C139.973 23.9147 139.914 23.76 139.914 23.6C139.914 23.3333 140.053 23.0987 140.33 22.896C140.714 22.6187 141.2 22.4 141.786 22.24C142.373 22.08 142.992 22 143.642 22C144.88 22 145.85 22.2827 146.554 22.848C147.269 23.4027 147.626 24.1707 147.626 25.152V29.264C147.626 29.5413 147.53 29.76 147.338 29.92C147.157 30.08 146.906 30.16 146.586 30.16C146.256 30.16 146 30.0853 145.818 29.936C145.637 29.7867 145.546 29.5733 145.546 29.296V29.12C144.938 29.8133 144.037 30.16 142.842 30.16ZM143.338 28.688C144.01 28.688 144.533 28.5867 144.906 28.384C145.29 28.1707 145.482 27.8773 145.482 27.504C145.482 27.152 145.29 26.8693 144.906 26.656C144.522 26.4427 144.01 26.336 143.37 26.336C142.794 26.336 142.346 26.4373 142.026 26.64C141.717 26.8427 141.562 27.1307 141.562 27.504C141.562 27.8773 141.717 28.1707 142.026 28.384C142.336 28.5867 142.773 28.688 143.338 28.688ZM152.835 30.16C151.566 30.16 150.686 29.4507 150.195 28.032L148.499 23.168C148.467 23.072 148.451 22.9813 148.451 22.896C148.451 22.6507 148.558 22.4427 148.771 22.272C148.995 22.1013 149.283 22.016 149.635 22.016C149.848 22.016 150.03 22.064 150.179 22.16C150.328 22.256 150.435 22.3893 150.499 22.56L152.291 27.76C152.376 28.0267 152.462 28.2187 152.547 28.336C152.632 28.4427 152.728 28.496 152.835 28.496C152.942 28.496 153.038 28.4427 153.123 28.336C153.208 28.2187 153.294 28.0267 153.379 27.76L155.171 22.56C155.235 22.3893 155.342 22.256 155.491 22.16C155.64 22.064 155.822 22.016 156.035 22.016C156.398 22.016 156.686 22.1013 156.899 22.272C157.112 22.432 157.219 22.64 157.219 22.896C157.219 22.9813 157.203 23.072 157.171 23.168L155.475 28.032C154.984 29.4507 154.104 30.16 152.835 30.16ZM159.893 30.16C159.562 30.16 159.306 30.0747 159.125 29.904C158.944 29.7333 158.853 29.4987 158.853 29.2V18.816C158.853 18.5173 158.944 18.2827 159.125 18.112C159.306 17.9413 159.562 17.856 159.893 17.856C160.213 17.856 160.469 17.9413 160.661 18.112C160.853 18.2827 160.949 18.5173 160.949 18.816V29.2C160.949 29.4987 160.853 29.7333 160.661 29.904C160.469 30.0747 160.213 30.16 159.893 30.16ZM167.104 30.16C166.187 30.16 165.387 29.9947 164.704 29.664C164.021 29.3333 163.493 28.8693 163.12 28.272C162.757 27.664 162.576 26.9547 162.576 26.144C162.576 24.832 162.955 23.8133 163.712 23.088C164.48 22.3627 165.557 22 166.944 22C167.797 22 168.549 22.1333 169.2 22.4C169.861 22.6667 170.373 23.04 170.736 23.52C171.109 23.9893 171.296 24.528 171.296 25.136C171.296 25.648 171.131 26.0427 170.8 26.32C170.48 26.5973 170.021 26.736 169.424 26.736H164.608C164.608 27.3333 164.816 27.7867 165.232 28.096C165.659 28.3947 166.283 28.544 167.104 28.544C167.968 28.544 168.704 28.352 169.312 27.968C169.653 27.7547 169.92 27.648 170.112 27.648C170.293 27.648 170.469 27.7333 170.64 27.904C170.821 28.0853 170.912 28.2827 170.912 28.496C170.912 28.752 170.805 28.9547 170.592 29.104C170.144 29.4453 169.621 29.7067 169.024 29.888C168.427 30.0693 167.787 30.16 167.104 30.16ZM168.784 25.264C168.965 25.264 169.093 25.232 169.168 25.168C169.243 25.0933 169.28 24.976 169.28 24.816C169.28 24.4427 169.067 24.1493 168.64 23.936C168.224 23.7227 167.659 23.616 166.944 23.616C166.229 23.616 165.664 23.7653 165.248 24.064C164.843 24.3627 164.64 24.7627 164.64 25.264H168.784ZM173.651 30.16C173.32 30.16 173.064 30.0747 172.883 29.904C172.702 29.7333 172.611 29.4987 172.611 29.2V22.96C172.611 22.6507 172.696 22.416 172.867 22.256C173.048 22.0853 173.299 22 173.619 22C173.939 22 174.19 22.0853 174.371 22.256C174.552 22.4267 174.643 22.6613 174.643 22.96V23.424C175.4 22.4747 176.435 22 177.747 22C178.771 22 179.576 22.3253 180.163 22.976C180.76 23.616 181.059 24.4907 181.059 25.6V29.2C181.059 29.4987 180.963 29.7333 180.771 29.904C180.579 30.0747 180.323 30.16 180.003 30.16C179.672 30.16 179.416 30.0747 179.235 29.904C179.054 29.7333 178.963 29.4987 178.963 29.2V25.6C178.963 24.992 178.814 24.5173 178.515 24.176C178.216 23.8347 177.8 23.664 177.267 23.664C176.456 23.664 175.827 23.904 175.379 24.384C174.931 24.8533 174.707 25.5147 174.707 26.368V29.2C174.707 29.4987 174.611 29.7333 174.419 29.904C174.227 30.0747 173.971 30.16 173.651 30.16ZM183.495 30.16C183.164 30.16 182.908 30.0747 182.727 29.904C182.545 29.7333 182.455 29.4987 182.455 29.2V18.816C182.455 18.5173 182.545 18.2827 182.727 18.112C182.908 17.9413 183.164 17.856 183.495 17.856C183.815 17.856 184.071 17.9413 184.263 18.112C184.455 18.2827 184.551 18.5173 184.551 18.816V25.184L189.223 22.176C189.457 22.0267 189.671 21.952 189.863 21.952C190.172 21.952 190.396 22.096 190.535 22.384C190.62 22.576 190.663 22.736 190.663 22.864C190.663 23.1413 190.497 23.3813 190.167 23.584L187.687 25.12C188.625 25.6853 189.324 26.2827 189.783 26.912C190.252 27.5413 190.54 28.2827 190.647 29.136C190.657 29.1787 190.663 29.2427 190.663 29.328C190.663 29.5947 190.583 29.8027 190.423 29.952C190.273 30.0907 190.06 30.16 189.783 30.16C189.495 30.16 189.255 30.1013 189.063 29.984C188.881 29.8667 188.764 29.696 188.711 29.472C188.551 28.8533 188.369 28.352 188.167 27.968C187.975 27.584 187.719 27.2533 187.399 26.976C187.089 26.688 186.668 26.3947 186.135 26.096L184.551 27.184V29.2C184.551 29.4987 184.455 29.7333 184.263 29.904C184.071 30.0747 183.815 30.16 183.495 30.16ZM196.172 30.16C195.244 30.16 194.417 29.9947 193.692 29.664C192.977 29.3227 192.417 28.8427 192.012 28.224C191.607 27.6053 191.404 26.8907 191.404 26.08C191.404 25.2693 191.607 24.5547 192.012 23.936C192.417 23.3173 192.977 22.8427 193.692 22.512C194.417 22.1707 195.244 22 196.172 22C197.1 22 197.921 22.1707 198.636 22.512C199.361 22.8427 199.927 23.3173 200.332 23.936C200.737 24.5547 200.94 25.2693 200.94 26.08C200.94 26.8907 200.737 27.6053 200.332 28.224C199.927 28.8427 199.361 29.3227 198.636 29.664C197.921 29.9947 197.1 30.16 196.172 30.16ZM196.172 28.496C196.993 28.496 197.639 28.2827 198.108 27.856C198.588 27.4293 198.828 26.8373 198.828 26.08C198.828 25.3227 198.588 24.7307 198.108 24.304C197.639 23.8773 196.993 23.664 196.172 23.664C195.351 23.664 194.7 23.8773 194.22 24.304C193.751 24.7307 193.516 25.3227 193.516 26.08C193.516 26.8373 193.751 27.4293 194.22 27.856C194.7 28.2827 195.351 28.496 196.172 28.496ZM203.276 32.352C202.945 32.352 202.673 32.2773 202.46 32.128C202.257 31.9787 202.156 31.7813 202.156 31.536C202.156 31.28 202.257 31.0773 202.46 30.928C202.662 30.7787 202.934 30.704 203.276 30.704H209.628C209.969 30.704 210.241 30.7787 210.444 30.928C210.646 31.0773 210.748 31.28 210.748 31.536C210.748 31.7813 210.641 31.9787 210.428 32.128C210.225 32.2773 209.958 32.352 209.628 32.352H203.276ZM213.167 30.16C212.836 30.16 212.58 30.0747 212.399 29.904C212.217 29.7333 212.127 29.4987 212.127 29.2V22.96C212.127 22.6507 212.212 22.416 212.383 22.256C212.564 22.0853 212.815 22 213.135 22C213.455 22 213.705 22.0853 213.887 22.256C214.068 22.4267 214.159 22.6613 214.159 22.96V23.488C214.489 23.0613 214.873 22.736 215.311 22.512C215.759 22.2773 216.239 22.16 216.751 22.16H217.103C217.444 22.16 217.705 22.2347 217.887 22.384C218.079 22.5227 218.175 22.7253 218.175 22.992C218.175 23.2587 218.079 23.4667 217.887 23.616C217.705 23.7547 217.444 23.824 217.103 23.824H216.559C215.844 23.824 215.273 24.0533 214.847 24.512C214.431 24.96 214.223 25.5787 214.223 26.368V29.2C214.223 29.4987 214.127 29.7333 213.935 29.904C213.743 30.0747 213.487 30.16 213.167 30.16ZM222.175 30.16C221.077 30.16 220.218 29.8453 219.599 29.216C218.991 28.576 218.687 27.6907 218.687 26.56V22.96C218.687 22.6613 218.783 22.4267 218.975 22.256C219.167 22.0853 219.423 22 219.743 22C220.074 22 220.33 22.0853 220.511 22.256C220.693 22.4267 220.783 22.6613 220.783 22.96V26.56C220.783 27.168 220.943 27.6427 221.263 27.984C221.594 28.3253 222.053 28.496 222.639 28.496C223.397 28.496 223.983 28.256 224.399 27.776C224.826 27.296 225.039 26.6347 225.039 25.792V22.96C225.039 22.6613 225.135 22.4267 225.327 22.256C225.519 22.0853 225.775 22 226.095 22C226.426 22 226.682 22.0853 226.863 22.256C227.045 22.4267 227.135 22.6613 227.135 22.96V29.2C227.135 29.5093 227.045 29.7493 226.863 29.92C226.693 30.08 226.447 30.16 226.127 30.16C225.807 30.16 225.557 30.0747 225.375 29.904C225.194 29.7333 225.103 29.4987 225.103 29.2V28.736C224.709 29.2267 224.271 29.5893 223.791 29.824C223.322 30.048 222.783 30.16 222.175 30.16ZM232.499 30.16C230.782 30.16 229.518 29.664 228.707 28.672C228.536 28.448 228.451 28.2453 228.451 28.064C228.451 27.808 228.584 27.584 228.851 27.392C229.032 27.2747 229.208 27.216 229.379 27.216C229.614 27.216 229.832 27.3173 230.035 27.52C230.398 27.8827 230.75 28.144 231.091 28.304C231.443 28.4533 231.875 28.528 232.387 28.528C232.824 28.528 233.192 28.4693 233.491 28.352C233.79 28.2347 233.939 28.0907 233.939 27.92C233.939 27.7067 233.816 27.5253 233.571 27.376C233.326 27.2267 232.83 27.0347 232.083 26.8C230.91 26.4373 230.078 26.0587 229.587 25.664C229.096 25.2587 228.851 24.7573 228.851 24.16C228.851 23.488 229.139 22.96 229.715 22.576C230.291 22.192 231.086 22 232.099 22C232.878 22 233.582 22.1173 234.211 22.352C234.84 22.5867 235.299 22.9013 235.587 23.296C235.726 23.4773 235.795 23.6587 235.795 23.84C235.795 24.096 235.667 24.304 235.411 24.464C235.23 24.5813 235.043 24.64 234.851 24.64C234.542 24.64 234.259 24.512 234.003 24.256C233.79 24.0533 233.512 23.8987 233.171 23.792C232.84 23.6853 232.478 23.632 232.083 23.632C231.336 23.632 230.963 23.808 230.963 24.16C230.963 24.2987 231.022 24.4213 231.139 24.528C231.256 24.6347 231.464 24.7467 231.763 24.864C232.072 24.9813 232.552 25.1413 233.203 25.344C234.248 25.664 234.979 26.016 235.395 26.4C235.822 26.784 236.035 27.2907 236.035 27.92C236.035 28.592 235.726 29.136 235.107 29.552C234.488 29.9573 233.619 30.16 232.499 30.16ZM241.233 30.16C239.516 30.16 238.252 29.664 237.441 28.672C237.271 28.448 237.185 28.2453 237.185 28.064C237.185 27.808 237.319 27.584 237.585 27.392C237.767 27.2747 237.943 27.216 238.113 27.216C238.348 27.216 238.567 27.3173 238.769 27.52C239.132 27.8827 239.484 28.144 239.825 28.304C240.177 28.4533 240.609 28.528 241.121 28.528C241.559 28.528 241.927 28.4693 242.225 28.352C242.524 28.2347 242.673 28.0907 242.673 27.92C242.673 27.7067 242.551 27.5253 242.305 27.376C242.06 27.2267 241.564 27.0347 240.817 26.8C239.644 26.4373 238.812 26.0587 238.321 25.664C237.831 25.2587 237.585 24.7573 237.585 24.16C237.585 23.488 237.873 22.96 238.449 22.576C239.025 22.192 239.82 22 240.833 22C241.612 22 242.316 22.1173 242.945 22.352C243.575 22.5867 244.033 22.9013 244.321 23.296C244.46 23.4773 244.529 23.6587 244.529 23.84C244.529 24.096 244.401 24.304 244.145 24.464C243.964 24.5813 243.777 24.64 243.585 24.64C243.276 24.64 242.993 24.512 242.737 24.256C242.524 24.0533 242.247 23.8987 241.905 23.792C241.575 23.6853 241.212 23.632 240.817 23.632C240.071 23.632 239.697 23.808 239.697 24.16C239.697 24.2987 239.756 24.4213 239.873 24.528C239.991 24.6347 240.199 24.7467 240.497 24.864C240.807 24.9813 241.287 25.1413 241.937 25.344C242.983 25.664 243.713 26.016 244.129 26.4C244.556 26.784 244.769 27.2907 244.769 27.92C244.769 28.592 244.46 29.136 243.841 29.552C243.223 29.9573 242.353 30.16 241.233 30.16ZM247.392 21.008C246.997 21.008 246.677 20.9013 246.432 20.688C246.197 20.464 246.08 20.176 246.08 19.824C246.08 19.472 246.197 19.1893 246.432 18.976C246.677 18.752 246.997 18.64 247.392 18.64C247.786 18.64 248.106 18.752 248.352 18.976C248.608 19.1893 248.736 19.472 248.736 19.824C248.736 20.176 248.608 20.464 248.352 20.688C248.106 20.9013 247.786 21.008 247.392 21.008ZM247.408 30.16C247.077 30.16 246.821 30.0747 246.64 29.904C246.458 29.7333 246.368 29.4987 246.368 29.2V22.96C246.368 22.6613 246.458 22.4267 246.64 22.256C246.821 22.0853 247.077 22 247.408 22C247.728 22 247.984 22.0853 248.176 22.256C248.368 22.4267 248.464 22.6613 248.464 22.96V29.2C248.464 29.4987 248.368 29.7333 248.176 29.904C247.984 30.0747 247.728 30.16 247.408 30.16ZM253.405 30.16C252.743 30.16 252.157 30.048 251.645 29.824C251.143 29.6 250.749 29.2907 250.461 28.896C250.183 28.4907 250.045 28.0267 250.045 27.504C250.045 26.7147 250.37 26.0853 251.021 25.616C251.682 25.1467 252.573 24.912 253.693 24.912C254.663 24.912 255.442 25.12 256.029 25.536V25.152C256.029 24.6507 255.874 24.2667 255.565 24C255.255 23.7333 254.807 23.6 254.221 23.6C253.346 23.6 252.594 23.7867 251.965 24.16C251.698 24.3093 251.469 24.384 251.277 24.384C251.042 24.384 250.834 24.2773 250.653 24.064C250.535 23.9147 250.477 23.76 250.477 23.6C250.477 23.3333 250.615 23.0987 250.893 22.896C251.277 22.6187 251.762 22.4 252.349 22.24C252.935 22.08 253.554 22 254.205 22C255.442 22 256.413 22.2827 257.117 22.848C257.831 23.4027 258.189 24.1707 258.189 25.152V29.264C258.189 29.5413 258.093 29.76 257.901 29.92C257.719 30.08 257.469 30.16 257.149 30.16C256.818 30.16 256.562 30.0853 256.381 29.936C256.199 29.7867 256.109 29.5733 256.109 29.296V29.12C255.501 29.8133 254.599 30.16 253.405 30.16ZM253.901 28.688C254.573 28.688 255.095 28.5867 255.469 28.384C255.853 28.1707 256.045 27.8773 256.045 27.504C256.045 27.152 255.853 26.8693 255.469 26.656C255.085 26.4427 254.573 26.336 253.933 26.336C253.357 26.336 252.909 26.4373 252.589 26.64C252.279 26.8427 252.125 27.1307 252.125 27.504C252.125 27.8773 252.279 28.1707 252.589 28.384C252.898 28.5867 253.335 28.688 253.901 28.688ZM260.78 30C260.406 30 260.097 29.8827 259.852 29.648C259.606 29.4133 259.484 29.1307 259.484 28.8C259.484 28.448 259.606 28.1547 259.852 27.92C260.097 27.6747 260.406 27.552 260.78 27.552C261.153 27.552 261.457 27.6747 261.692 27.92C261.937 28.1653 262.06 28.4587 262.06 28.8C262.06 29.1307 261.937 29.4133 261.692 29.648C261.457 29.8827 261.153 30 260.78 30ZM267.791 30.16C266.362 30.16 265.252 29.8027 264.463 29.088C263.674 28.3627 263.279 27.3547 263.279 26.064C263.279 24.7733 263.674 23.776 264.463 23.072C265.252 22.3573 266.362 22 267.791 22C268.548 22 269.231 22.128 269.839 22.384C270.458 22.6293 270.943 22.9813 271.295 23.44C271.423 23.6 271.487 23.7707 271.487 23.952C271.487 24.2293 271.343 24.4747 271.055 24.688C270.927 24.784 270.767 24.832 270.575 24.832C270.426 24.832 270.271 24.8 270.111 24.736C269.951 24.6613 269.812 24.56 269.695 24.432C269.482 24.1867 269.204 24 268.863 23.872C268.532 23.7333 268.175 23.664 267.791 23.664C267.034 23.664 266.442 23.8773 266.015 24.304C265.599 24.72 265.391 25.3067 265.391 26.064C265.391 26.8427 265.599 27.4453 266.015 27.872C266.442 28.288 267.034 28.496 267.791 28.496C268.634 28.496 269.354 28.2133 269.951 27.648C270.25 27.3493 270.543 27.2 270.831 27.2C271.023 27.2 271.199 27.264 271.359 27.392C271.615 27.5947 271.743 27.84 271.743 28.128C271.743 28.3093 271.668 28.4853 271.519 28.656C271.028 29.1787 270.479 29.5627 269.871 29.808C269.274 30.0427 268.58 30.16 267.791 30.16ZM277.657 30.16C276.729 30.16 275.902 29.9947 275.177 29.664C274.462 29.3227 273.902 28.8427 273.497 28.224C273.091 27.6053 272.889 26.8907 272.889 26.08C272.889 25.2693 273.091 24.5547 273.497 23.936C273.902 23.3173 274.462 22.8427 275.177 22.512C275.902 22.1707 276.729 22 277.657 22C278.585 22 279.406 22.1707 280.121 22.512C280.846 22.8427 281.411 23.3173 281.817 23.936C282.222 24.5547 282.425 25.2693 282.425 26.08C282.425 26.8907 282.222 27.6053 281.817 28.224C281.411 28.8427 280.846 29.3227 280.121 29.664C279.406 29.9947 278.585 30.16 277.657 30.16ZM277.657 28.496C278.478 28.496 279.123 28.2827 279.593 27.856C280.073 27.4293 280.312 26.8373 280.312 26.08C280.312 25.3227 280.073 24.7307 279.593 24.304C279.123 23.8773 278.478 23.664 277.657 23.664C276.835 23.664 276.185 23.8773 275.705 24.304C275.235 24.7307 275.001 25.3227 275.001 26.08C275.001 26.8373 275.235 27.4293 275.705 27.856C276.185 28.2827 276.835 28.496 277.657 28.496ZM284.542 30.16C284.211 30.16 283.955 30.0747 283.774 29.904C283.592 29.7333 283.502 29.4987 283.502 29.2V22.96C283.502 22.6613 283.592 22.4267 283.774 22.256C283.955 22.0853 284.211 22 284.542 22C284.862 22 285.118 22.0853 285.31 22.256C285.502 22.4267 285.598 22.6613 285.598 22.96V23.344C285.843 22.9173 286.152 22.5867 286.526 22.352C286.899 22.1173 287.304 22 287.742 22C288.19 22 288.595 22.1227 288.958 22.368C289.32 22.6027 289.592 22.928 289.774 23.344C290.531 22.448 291.39 22 292.35 22C293.203 22 293.87 22.2987 294.35 22.896C294.83 23.4933 295.07 24.3253 295.07 25.392V29.2C295.07 29.4987 294.974 29.7333 294.782 29.904C294.59 30.0747 294.334 30.16 294.014 30.16C293.683 30.16 293.427 30.0747 293.246 29.904C293.064 29.7333 292.974 29.4987 292.974 29.2V25.264C292.974 24.7413 292.878 24.3467 292.686 24.08C292.504 23.8027 292.232 23.664 291.87 23.664C291.56 23.664 291.288 23.7493 291.054 23.92C290.819 24.0907 290.6 24.3627 290.398 24.736V29.2C290.398 29.4987 290.302 29.7333 290.11 29.904C289.918 30.0747 289.662 30.16 289.342 30.16C289.011 30.16 288.755 30.0747 288.574 29.904C288.392 29.7333 288.302 29.4987 288.302 29.2V25.6C288.302 24.3093 287.934 23.664 287.198 23.664C286.696 23.664 286.302 23.8613 286.014 24.256C285.736 24.6507 285.598 25.1947 285.598 25.888V29.2C285.598 29.4987 285.502 29.7333 285.31 29.904C285.118 30.0747 284.862 30.16 284.542 30.16Z" fill="white"/>
</svg>
